<?xml version="1.0" standalone="no"?>
<!DOCTYPE svg PUBLIC "-//W3C//DTD SVG 1.1//EN" "http://www.w3.org/Graphics/SVG/1.1/DTD/svg11.dtd" >
<svg>
<metadata>
Created by FontForge 20090914 at Tue Aug 29 09:18:00 2017
 By www-data
&#194;&#169;Neil Summerour and Positype www.positype.com
</metadata>
<defs>
<font id="AyumiMedium" horiz-adv-x="476" >
  <font-face 
    font-family="Ayumi Medium"
    font-weight="400"
    font-stretch="normal"
    units-per-em="1000"
    panose-1="0 0 4 0 0 0 0 0 0 0"
    ascent="800"
    descent="-200"
    x-height="482"
    cap-height="692"
    bbox="-144.001 -221 809 913"
    underline-thickness="20"
    underline-position="-110"
    unicode-range="U+0020-U+F002"
  />
<missing-glyph horiz-adv-x="500" 
d="M63 0v750h375v-750h-375zM125 63h250v625h-250v-625z" />
    <glyph glyph-name=".notdef" horiz-adv-x="500" 
d="M63 0v750h375v-750h-375zM125 63h250v625h-250v-625z" />
    <glyph glyph-name="space" unicode=" " horiz-adv-x="230" 
 />
    <glyph glyph-name="exclam" unicode="!" horiz-adv-x="283" 
d="M182 692l-12 -485h-57l-12 485h81zM203 50c0 -17.333 -6 -32 -18 -44s-26.333 -18 -43 -18s-31.167 6 -43.5 18s-18.5 26.667 -18.5 44c0 16.667 6.16699 31 18.5 43s26.833 18 43.5 18s31 -6 43 -18s18 -26.333 18 -43z" />
    <glyph glyph-name="quotedbl" unicode="&#x22;" horiz-adv-x="326" 
d="M266 722l-11 -218h-55l-11 218h77zM137 722l-11 -218h-55l-11 218h77z" />
    <glyph glyph-name="numbersign" unicode="#" horiz-adv-x="552" 
d="M502 485l-10 -67h-93l-23 -144h93l-10 -66h-93l-32 -202h-66l32 202h-93l-32 -202h-66l32 202h-91l10 66h92l22 144h-91l10 67h92l31 200h66l-31 -200h92l32 200h65l-31 -200h93zM333 418h-93l-22 -144h92z" />
    <glyph glyph-name="dollar" unicode="$" horiz-adv-x="448" 
d="M398 176c0 -45.333 -13.333 -84.499 -40 -117.499s-62 -54.167 -106 -63.5v-60h-55v57c-52.667 4 -101.667 22 -147 54l36 55c24.667 -14 42.667 -23.667 54 -29c20 -8.66699 39 -14.334 57 -17.001v258c-3.33301 0.666992 -15.666 8 -36.999 22
c-36 22.667 -61.667 45.334 -77 68.001c-18.667 28 -28 63 -28 105c0 92.667 47.333 144.667 142 156v58h55v-58c49.333 -6 91 -20.667 125 -44l-36 -55c-30 17.333 -59.667 29 -89 35v-240c2 -0.666992 12.333 -6 31 -16c37.333 -20.667 64.666 -42.334 81.999 -65.001
c21.333 -28 32.333 -62.333 33 -103zM197 391.001v209c-48.667 -11.333 -73 -42 -73 -92c0 -28 5.66699 -50.5 17 -67.5s30 -33.5 56 -49.5zM329 175.001c-0.666992 44.667 -26.3311 81.333 -76.998 110v-223c23.333 4.66699 42.666 19 57.999 43
c13.333 22 19.666 45.333 18.999 70z" />
    <glyph glyph-name="percent" unicode="%" horiz-adv-x="673" 
d="M623 191c0 -135.333 -40.667 -203.002 -122 -203.002c-45.333 0 -78.333 24 -99 72c-14.667 34.667 -22 78.334 -22 131.001s7.33301 96.334 22 131.001c20 48 53 72 99 72c81.333 0 122 -67.667 122 -203zM482 676.998l-235 -693h-54l235 693h54zM293 468.998
c0 -134.667 -40.667 -202 -122 -202c-45.333 0 -78.333 24 -99 72c-14.667 34 -22 77.333 -22 130c0 53.333 7.33301 97 22 131c20 48 53 72 99 72c81.333 0 122 -67.667 122 -203zM566 190.998c0 104.667 -21.667 157 -65 157c-42 0 -63 -52.333 -63 -157s21 -157 63 -157
c43.333 0 65 52.333 65 157zM236 468.998c0 104.667 -21.667 157 -65 157c-42 0 -63 -52.333 -63 -157c0 -104 21 -156 63 -156c43.333 0 65 52 65 156z" />
    <glyph glyph-name="ampersand" unicode="&#x26;" horiz-adv-x="535" 
d="M535 0l-99.9971 0.000976562l-50 58c-42.667 -44.667 -93.334 -67 -152.001 -67c-14 0 -28.333 1.66699 -43 5c-40.667 10 -72.834 31.5 -96.501 64.5s-34.834 72.167 -33.501 117.5c2.66699 80.667 35 153.667 97 219c-30.667 62.667 -46 113.667 -46 153
c0 38.667 11 72 33 100c24.667 31.333 57.667 47 99 47c36.667 0 66.5 -12 89.5 -36s34.5 -54.333 34.5 -91c0 -36 -13 -70.667 -39 -104c-14 -18 -42 -45.667 -84 -83c34.667 -64 78 -130.333 130 -199c13.333 39.333 20 83.666 20 132.999v47h123v-58h-51
c-2 -74.667 -15 -137 -39 -187c34.667 -42 70.667 -81.667 108 -119zM299.003 578.001c0 18.667 -5.83203 34.498 -17.499 47.498s-25.834 19.167 -42.501 18.5c-18 -1.33301 -31.833 -10.333 -41.5 -27s-14.5 -37 -14.5 -61c0 -31.333 10.333 -69.333 31 -114
c28 24.667 47.333 44.334 58 59.001c18 24.667 27 50.334 27 77.001zM340.004 112.999c-53.333 66 -103 139.667 -149 221c-40 -48 -60 -101.333 -60 -160c0 -34.667 9.66699 -63.5 29 -86.5s44.333 -34.833 75 -35.5c40.667 0 75.667 20.333 105 61z" />
    <glyph glyph-name="quotesingle" unicode="'" horiz-adv-x="197" 
d="M137 722l-11 -218h-55l-11 218h77z" />
    <glyph glyph-name="parenleft" unicode="(" horiz-adv-x="276" 
d="M226 -146l-47 -27c-66 137.333 -99 287.666 -99 450.999s33 313.333 99 450l47 -26c-50.667 -131.333 -76 -272.666 -76 -423.999c0 -152 25.333 -293.333 76 -424z" />
    <glyph glyph-name="parenright" unicode=")" horiz-adv-x="276" 
d="M196 278c0 -163.333 -33 -313.666 -99 -450.999l-47 27c50.667 130.667 76 272 76 424c0 151.333 -25.333 292.666 -76 423.999l47 26c66 -136.667 99 -286.667 99 -450z" />
    <glyph glyph-name="asterisk" unicode="*" horiz-adv-x="457" 
d="M407 550l-140 -36l93 -111l-54 -39l-77 123l-77 -123l-54 39l92 111l-140 36l21 64l134 -54l-10 144h67l-10 -144l135 54z" />
    <glyph glyph-name="plus" unicode="+" horiz-adv-x="443" 
d="M393 316h-139v-140h-64v140h-140v64h140v140h64v-140h139v-64z" />
    <glyph glyph-name="comma" unicode="," horiz-adv-x="246" 
d="M185 50c0 -27.333 -12.333 -61.333 -37 -102c-19.333 -32 -41.333 -61 -66 -87l-11 26l29 114l-38 49c0 16.667 6.16699 31 18.5 43s26.833 18 43.5 18s31 -6 43 -18s18 -26.333 18 -43z" />
    <glyph glyph-name="hyphen" unicode="-" horiz-adv-x="356" 
d="M296 311h-236v73h236v-73z" />
    <glyph glyph-name="hyphen" unicode="&#x2010;" horiz-adv-x="356" 
d="M296 311h-236v73h236v-73z" />
    <glyph glyph-name="period" unicode="." horiz-adv-x="263" 
d="M193 50c0 -17.333 -6 -32 -18 -44s-26.333 -18 -43 -18s-31.167 6 -43.5 18s-18.5 26.667 -18.5 44c0 16.667 6.16699 31 18.5 43s26.833 18 43.5 18s31 -6 43 -18s18 -26.333 18 -43z" />
    <glyph glyph-name="slash" unicode="/" horiz-adv-x="303" 
d="M303 768l-231 -843h-72l230 843h73z" />
    <glyph glyph-name="zero" unicode="0" horiz-adv-x="490" 
d="M422 346c0 -87.333 -9.66602 -159.667 -28.999 -217c-28.667 -88 -78 -132 -148 -132c-70.667 0 -120.667 44 -150 132c-18.667 56.667 -28 129 -28 217s9.33301 160.667 28 218c29.333 88 79.333 132 150 132c69.333 0 118.666 -44 147.999 -132
c19.333 -58 29 -130.667 29 -218zM344.001 345.999c0 63.333 -4.66699 118.667 -14 166c-16.667 80 -45 120 -85 120c-40.667 0 -69.334 -40 -86.001 -120c-9.33301 -46 -14 -101.333 -14 -166c0 -64 4.66699 -119 14 -165c16.667 -80 45.334 -120 86.001 -120
c40 0 68.333 40 85 120c9.33301 47.333 14 102.333 14 165z" />
    <glyph glyph-name="one" unicode="1" horiz-adv-x="345" 
d="M245 0l-76 -0.000976562v597l-119 -68c-10.667 -6 -20.667 -1.66699 -30 13s-9 25.334 1 32.001l173 118h51v-692z" />
    <glyph glyph-name="two" unicode="2" horiz-adv-x="454" 
d="M404 526c0 -32.667 -9.66602 -65.999 -28.999 -99.999c-12.667 -22 -39.334 -59 -80.001 -111c-42 -54 -71.333 -93 -88 -117c-30.667 -46 -53.334 -89.333 -68.001 -130h248v-68h-337c0.666992 57.333 25.667 126 75 206c22 35.333 66 95.666 132 180.999
c46.667 60.667 70 107 70 139c0 30 -8.5 54.667 -25.5 74s-37.5 29 -61.5 29c-34.667 0 -68 -27.667 -100 -83c-7.33301 -13.333 -20.666 -15.333 -39.999 -6c-16 7.33301 -24 17 -24 29c0 2.66699 0.333008 5 1 7c34.667 80.667 89 121 163 121
c46.667 0 85.667 -16 117 -48s47 -73 47 -123z" />
    <glyph glyph-name="three" unicode="3" horiz-adv-x="434" 
d="M384 195c0 -53.333 -15.666 -99.333 -46.999 -138c-34 -42 -77 -63 -129 -63c-40 0 -75.333 13.667 -106 41c-28.667 25.333 -49 58 -61 98c-4 14 4 25 24 33c19.333 8.66699 31 8.33398 35 -0.999023c17.333 -34 30.666 -56.667 39.999 -68
c18.667 -22.667 41.334 -34 68.001 -34c29.333 0 53.333 14 72 42c16.667 26 25 56 25 90s-9.16699 64.833 -27.5 92.5s-41.166 41.5 -68.499 41.5h-39v65h39c24 0 44.333 12.333 61 37s25 51.667 25 81c0 30.667 -8.66699 58.167 -26 82.5s-39 36.5 -65 36.5
c-38 0 -69.333 -24.667 -94 -74c-2 -4.66699 -5.33301 -11 -10 -19c-6.66699 -9.33301 -20.334 -8.66602 -41.001 2.00098c-12.667 7.33301 -19 15.666 -19 24.999c0 2 0.333008 4 1 6c13.333 37.333 34.166 67.833 62.499 91.5s61.833 35.5 100.5 35.5
c48.667 0 89.667 -19.333 123 -58c31.333 -36.667 47 -79.334 47 -128.001c0 -29.333 -7.66699 -57.333 -23 -84s-36 -48 -62 -64c32 -16.667 56.667 -43 74 -79c14 -29.333 21 -59.333 21 -90z" />
    <glyph glyph-name="four" unicode="4" horiz-adv-x="425" 
d="M385 172h-42v-172h-78v172h-235v70l232 449c7.33301 13.333 21 15.333 41 6c16 -8 24 -17.667 24 -29c0 -2.66699 -0.333008 -5 -1 -7l-217 -420h160l14 208h60v-208h34z" />
    <glyph glyph-name="five" unicode="5" horiz-adv-x="446" 
d="M396 214c0 -60.667 -14.333 -110.999 -43 -150.999c-32.667 -46 -78.334 -69 -137.001 -69c-79.333 0 -134.333 44.667 -165 134c-4.66699 14 3 25.667 23 35c20.667 9.33301 33.667 7.66602 39 -5.00098c26.667 -64.667 61 -97 103 -97c68.667 0 103 51.333 103 154
c0 101.333 -34.333 152 -103 152c-33.333 0 -62 -15.667 -86 -47l-65 20v352h291v-69h-222v-221c26.667 20 54 30.333 82 31c58.667 2.66699 104.334 -19.666 137.001 -66.999c28.667 -40.667 43 -91.334 43 -152.001z" />
    <glyph glyph-name="six" unicode="6" horiz-adv-x="436" 
d="M396 212c0 -61.333 -16 -112.666 -48 -153.999c-34 -42.667 -77.333 -64 -130 -64s-95.5 21 -128.5 63s-49.5 93.333 -49.5 154c0 77.333 23 161.666 69 252.999c40 78 92.667 154.667 158 230c10.667 12 24.667 14 42 6c16.667 -7.33301 25 -17.333 25 -30
c0 -2 -0.666992 -4 -2 -6c-84.667 -102 -143 -193.667 -175 -275c28.667 28.667 57 42 85 40c43.333 -3.33301 79.833 -26 109.5 -68s44.5 -91.667 44.5 -149zM317 211c0 41.333 -9.66699 76.666 -29 105.999s-42.333 44 -69 44c-27.333 0 -50.666 -14.667 -69.999 -44
s-29 -64.666 -29 -105.999s9.66699 -76.5 29 -105.5s42.666 -43.5 69.999 -43.5c26.667 0 49.667 14.667 69 44s29 64.333 29 105z" />
    <glyph glyph-name="seven" unicode="7" horiz-adv-x="413" 
d="M383 692l-229.999 -690.999c-4.66699 -15.333 -19 -19 -43 -11c-22.667 7.33301 -31.334 18.666 -26.001 33.999l206 600h-243v68h336z" />
    <glyph glyph-name="eight" unicode="8" horiz-adv-x="420" 
d="M387 208c0 -54 -14.6699 -101.667 -44.0029 -143c-33.333 -47.333 -77.666 -71 -132.999 -71c-54.667 0 -99 23.667 -133 71c-29.333 41.333 -44 89 -44 143c0 32.667 8.33301 65.334 25 98.001c18.667 36 43.667 63 75 81c-26.667 15.333 -47.667 36.333 -63 63
c-14 24.667 -21 49.334 -21 74.001c0 46 15.333 86.333 46 121s69 52 115 52c46.667 0 85.334 -17.333 116.001 -52s46 -75 46 -121c0 -24.667 -7 -49.334 -21 -74.001c-15.333 -26.667 -36.333 -47.667 -63 -63c30.667 -18 55.334 -45 74.001 -81
c16.667 -32.667 25 -65.334 25 -98.001zM292.997 524c0 28 -7.33301 52.333 -22 73c-16 23.333 -36.333 35 -61 35s-45 -11.667 -61 -35c-14.667 -20.667 -22 -45 -22 -73c0 -27.333 7.33301 -51.666 22 -72.999c16 -23.333 36.333 -35 61 -35s45 11.667 61 35
c14.667 21.333 22 45.666 22 72.999zM308.997 207c0 36.667 -8.66699 69.334 -26 98.001c-18.667 32.667 -43 49 -73 49s-54.333 -16.333 -73 -49c-16.667 -28.667 -25 -61.334 -25 -98.001c0 -36 8.33301 -68.333 25 -97c18.667 -32 43 -48 73 -48s54.667 16 74 48
c16.667 28.667 25 61 25 97z" />
    <glyph glyph-name="nine" unicode="9" horiz-adv-x="466" 
d="M416 482c0 -77.333 -23 -161.667 -69 -253c-39.333 -78 -92 -155 -158 -231c-10 -12 -23.667 -14 -41 -6c-16.667 8 -25 18 -25 30c0 2.66699 0.333008 5 1 7c84.667 101.333 143.334 193 176.001 275c-28.667 -28.667 -57.334 -42 -86.001 -40
c-43.333 3.33301 -79.833 26 -109.5 68s-44.5 91.667 -44.5 149c0 61.333 16.333 112.333 49 153c33.333 43.333 76.333 65 129 65s96 -21.333 130 -64c32 -41.333 48 -92.333 48 -153zM336 480.999c0 41.333 -9.5 76.5 -28.5 105.5s-42.167 43.5 -69.5 43.5
s-50.666 -14.5 -69.999 -43.5s-29 -64.167 -29 -105.5s9.66699 -76.5 29 -105.5s42.666 -43.5 69.999 -43.5s50.5 14.5 69.5 43.5s28.5 64.167 28.5 105.5z" />
    <glyph glyph-name="colon" unicode=":" horiz-adv-x="263" 
d="M193 330c0 -16.667 -6 -31 -18 -43s-26.333 -18 -43 -18c-17.333 0 -32 6 -44 18s-18 26.333 -18 43s6.16699 31.167 18.5 43.5s26.833 18.5 43.5 18.5s31 -6 43 -18s18 -26.667 18 -44zM193 50c0 -17.333 -6 -32 -18 -44s-26.333 -18 -43 -18s-31.167 6 -43.5 18
s-18.5 26.667 -18.5 44c0 16.667 6.16699 31 18.5 43s26.833 18 43.5 18s31 -6 43 -18s18 -26.333 18 -43z" />
    <glyph glyph-name="semicolon" unicode=";" horiz-adv-x="263" 
d="M193 330c0 -16.667 -6 -31 -18 -43s-26.333 -18 -43 -18c-17.333 0 -32 6 -44 18s-18 26.333 -18 43s6.16699 31.167 18.5 43.5s26.833 18.5 43.5 18.5s31 -6 43 -18s18 -26.667 18 -44zM193 50c0 -27.333 -12.333 -61.333 -37 -102c-19.333 -32 -41.333 -61 -66 -87
l-11 26l29 114l-38 49c0 16.667 6.16699 31 18.5 43s26.833 18 43.5 18s31 -6 43 -18s18 -26.333 18 -43z" />
    <glyph glyph-name="less" unicode="&#x3c;" horiz-adv-x="407" 
d="M347 110l-297 178v86l297 178v-84l-245 -137l245 -137v-84z" />
    <glyph glyph-name="equal" unicode="=" horiz-adv-x="407" 
d="M347 390h-287v64h287v-64zM347 196h-287v64h287v-64z" />
    <glyph glyph-name="greater" unicode="&#x3e;" horiz-adv-x="407" 
d="M357 288l-297 -178v84l245 137l-245 137v84l297 -178v-86z" />
    <glyph glyph-name="question" unicode="?" horiz-adv-x="398" 
d="M358 531c0 -25.333 -7 -51.001 -21 -77.001c-0.666992 -1.33301 -15.667 -24 -45 -68c-38 -56 -57.333 -115.667 -58 -179h-62c-0.666992 10 -1 19.667 -1 29c0 28 5.66699 61 17 99c8 26.667 26.333 62.334 55 107.001c24 38 36.333 67.667 37 89
c1.33301 26 -3 48 -13 66c-12.667 23.333 -32.667 35 -60 35c-39.333 0 -67.666 -24 -84.999 -72l-72 22c27.333 76.667 79.666 115 156.999 115c49.333 0 87.333 -16.667 114 -50c24.667 -30 37 -68.667 37 -116zM265 49.999c0 -17.333 -5.83301 -32 -17.5 -44
s-26.167 -18 -43.5 -18c-16.667 0 -31.167 6 -43.5 18s-18.5 26.667 -18.5 44c0 16.667 6.16699 31 18.5 43s26.833 18 43.5 18c17.333 0 31.833 -6 43.5 -18s17.5 -26.333 17.5 -43z" />
    <glyph glyph-name="at" unicode="@" horiz-adv-x="784" 
d="M710 356c-11.333 -76.667 -43.667 -134.999 -97 -174.999c-50.667 -38 -114.334 -56 -191.001 -54l10 75c-33.333 -54.667 -65 -82 -95 -82c-35.333 0 -61.666 19 -78.999 57c-14.667 30.667 -22 69 -22 115c0 18 1.33301 34.667 4 50c20 143.333 76.667 215 170 215
c36.667 0 65.334 -21.333 86.001 -64l51 56l-55 -383c111.333 22 170 96.333 176 223c3.33301 74 -16.334 135.167 -59.001 183.5s-98.667 72.5 -168 72.5c-76.667 0 -145.334 -29.167 -206.001 -87.5s-97.334 -129.5 -110.001 -213.5c-2.66699 -17.333 -4 -34.333 -4 -51
c0 -72 21.5 -131.667 64.5 -179s98.5 -71 166.5 -71c36.667 0 73.334 7.66699 110.001 23c7.33301 3.33301 13.333 -0.666992 18 -12c4.66699 -10.667 3.33398 -17.667 -3.99902 -21c-44.667 -19.333 -89.667 -29 -135 -29c-83.333 0 -151.333 29 -204 87
c-51.333 56 -77 124.667 -77 206c0 100 36.833 189.5 110.5 268.5s160.5 118.5 260.5 118.5c78.667 0 145.5 -27.833 200.5 -83.5s82.5 -122.5 82.5 -200.5c0 -14.667 -1.33301 -29.334 -4 -44.001zM466.999 453.001c0 1.33301 -0.666992 3.33301 -2 6
c-10 27.333 -31 41 -63 41c-48.667 0 -80.334 -48.667 -95.001 -146c-2 -15.333 -3 -34 -3 -56c0 -78.667 16 -118.667 48 -120c22.667 -1.33301 52.334 29 89.001 91z" />
    <glyph glyph-name="A" unicode="A" 
d="M476 0h-81l-52 204h-210l-52 -204h-81l197 692h82zM326 270l-76 288l-12 62l-12 -62l-76 -288h176z" />
    <glyph glyph-name="B" unicode="B" horiz-adv-x="505" 
d="M465 198c0 -132 -77.333 -198 -232 -198h-163v692h146c148.667 0 223 -62 223 -186c0 -70.667 -31.667 -119 -95 -145c80.667 -22.667 121 -77 121 -163zM360 501c0 44.667 -13 76.667 -39 96c-22.667 16.667 -57.667 25 -105 25h-66v-238h66c96 0 144 39 144 117z
M386 199c0 49.333 -16.668 83.667 -50.001 103c-23.333 14 -57.666 21 -102.999 21h-83v-253h83c102 0 153 43 153 129z" />
    <glyph glyph-name="C" unicode="C" horiz-adv-x="445" 
d="M419 62c-39.333 -46.667 -89 -70.001 -149 -70.001c-87.333 0 -150 40 -188 120c-28 59.333 -42 137.333 -42 234c0 97.333 14 175.333 42 234c38 80 100.667 120 188 120c60 0 109.667 -23 149 -69c2.66699 -3.33301 4 -7 4 -11c0 -9.33301 -4.83301 -18.5 -14.5 -27.5
s-19.5 -13.5 -29.5 -13.5c-6.66699 0 -11.667 2.33301 -15 7c-26 30.667 -57.333 46 -94 46c-59.333 0 -101.333 -35.667 -126 -107c-16.667 -47.333 -25 -107 -25 -179c0 -71.333 8.33301 -130.666 25 -177.999c24.667 -71.333 66.667 -107 126 -107
c36.667 0 68 15.333 94 46c3.33301 4 8.33301 6 15 6c10 0 19.833 -4.33301 29.5 -13s14.5 -18 14.5 -28c0 -4 -1.33301 -7.33301 -4 -10z" />
    <glyph glyph-name="D" unicode="D" horiz-adv-x="517" 
d="M467 346c0 -65.333 -2 -117.334 -6 -156.001c-7.33301 -68 -29 -116.667 -65 -146s-90 -44 -162 -44h-164v692h164c74 0 129 -15 165 -45c32.667 -29.333 53 -75.666 61 -138.999c4.66699 -37.333 7 -91.333 7 -162zM388 345.999c0 63.333 -2.00098 113 -6.00098 149
c-6 55.333 -21.667 91 -47 107c-20.667 12.667 -54.667 19 -102 19h-83v-550h84c46.667 0 80.334 6.66699 101.001 20c25.333 16 41 51.667 47 107c4 36.667 6 86 6 148z" />
    <glyph glyph-name="E" unicode="E" horiz-adv-x="462" 
d="M412 0h-342v692h342v-74h-262v-223h206c14.667 0 22 -11.333 22 -34c0 -22 -7.33301 -33 -22 -33h-206v-253h262v-75z" />
    <glyph glyph-name="F" unicode="F" horiz-adv-x="420" 
d="M412 618h-262v-223h206c14.667 0 22 -11.333 22 -34c0 -22 -7.33301 -33 -22 -33h-206v-328h-80v692h342v-74z" />
    <glyph glyph-name="G" unicode="G" horiz-adv-x="488" 
d="M438 0l-39 46c-37.333 -36 -80.333 -54 -129 -54c-87.333 0 -150 40 -188 120c-28 59.333 -42 137.333 -42 234c0 97.333 14 175.333 42 234c38 80 100.667 120 188 120c60 0 109.667 -23 149 -69c2.66699 -3.33301 4 -7 4 -11c0 -9.33301 -4.83301 -18.5 -14.5 -27.5
s-19.5 -13.5 -29.5 -13.5c-6.66699 0 -11.667 2.33301 -15 7c-26 30.667 -57.333 46 -94 46c-59.333 0 -101.333 -35.667 -126 -107c-16.667 -47.333 -25 -107 -25 -179s8.33301 -131.333 25 -178c24.667 -71.333 66.667 -107 126 -107c35.333 0 66 15 92 45v193h-88v66h164
v-365z" />
    <glyph glyph-name="H" unicode="H" horiz-adv-x="542" 
d="M472 0h-79v328h-243v-328h-80v692h80v-297h243v297h79v-692z" />
    <glyph glyph-name="I" unicode="I" horiz-adv-x="220" 
d="M150 0h-80v692h80v-692z" />
    <glyph glyph-name="J" unicode="J" horiz-adv-x="414" 
d="M344 209c0 -57.333 -9.33301 -102.667 -28 -136c-29.333 -54 -79.666 -81 -150.999 -81c-63.333 0 -110.333 24.667 -141 74c-2.66699 3.33301 -4 7 -4 11c0 12 6 23 18 33c10 7.33301 19.667 11 29 11c7.33301 0 12.666 -2.33301 15.999 -7c20.667 -34 48 -51 82 -51
c40 0 67.667 15.667 83 47c10.667 22 16 55 16 99v483h80v-483z" />
    <glyph glyph-name="K" unicode="K" horiz-adv-x="479" 
d="M479 0h-95l-230 357l187 335h86c14 0 21 -11 21 -33s-7 -33 -21 -33h-40l-145 -265zM150 0h-80v692h80v-692z" />
    <glyph glyph-name="L" unicode="L" horiz-adv-x="430" 
d="M387 0h-317v692h80v-617h237v-75z" />
    <glyph glyph-name="M" unicode="M" horiz-adv-x="629" 
d="M569 0h-78l-14 455l3 100l-24 -101l-119 -362h-44l-120 362l-24 101l4 -100l-15 -455h-78l26 692h79l137 -419l13 -67l12 67l137 419h80z" />
    <glyph glyph-name="N" unicode="N" horiz-adv-x="530" 
d="M460 0h-69l-221 464l-23 71l2 -96v-439h-79v692h72l213 -447l28 -76l-2 116v407h79v-692z" />
    <glyph glyph-name="O" unicode="O" horiz-adv-x="520" 
d="M480 346c0 -95.333 -13 -172.333 -39 -231c-36.667 -82 -97 -123 -181 -123c-146.667 0 -220 118 -220 354s73.333 354 220 354s220 -118 220 -354zM401 346c0 70.667 -7.66602 129.334 -22.999 176.001c-22.667 73.333 -62 110 -118 110
c-55.333 0 -94.666 -36.667 -117.999 -110c-14.667 -46.667 -22 -105.334 -22 -176.001c0 -70 7.33301 -128.333 22 -175c23.333 -73.333 62.666 -110 117.999 -110s94.666 36.667 117.999 110c15.333 46.667 23 105 23 175z" />
    <glyph glyph-name="P" unicode="P" horiz-adv-x="494" 
d="M454 499c0 -128.667 -77 -193 -231 -193h-73v-306h-80v692h155c152.667 0 229 -64.333 229 -193zM375 499c0 46.667 -14.333 79.666 -43 98.999c-24 16 -60.333 24 -109 24h-73v-245h73c50 0 86.667 8 110 24c28 18.667 42 51.334 42 98.001z" />
    <glyph glyph-name="Q" unicode="Q" horiz-adv-x="520" 
d="M480 346c0 -214 -61.666 -330.667 -184.999 -350c29.333 -23.333 48.666 -37.666 57.999 -42.999c20 -12 42 -18 66 -18c13.333 0 20 -10.333 20 -31c0 -20 -6.66699 -30 -20 -30c-36.667 0 -77 16 -121 48l-107 82c-56.667 17.333 -98 65.666 -124 144.999
c-18 56 -27 121.667 -27 197c0 236 73.333 354 220 354s220 -118 220 -354zM401.001 346c0 70.667 -7.66602 129.334 -22.999 176.001c-22.667 73.333 -62 110 -118 110c-55.333 0 -94.666 -36.667 -117.999 -110c-14.667 -46.667 -22 -105.334 -22 -176.001
c0 -70 7.33301 -128.333 22 -175c23.333 -73.333 62.666 -110 117.999 -110s94.666 36.667 117.999 110c15.333 46.667 23 105 23 175z" />
    <glyph glyph-name="R" unicode="R" horiz-adv-x="483" 
d="M448 0h-85.001l-99 229c-9.33301 21.333 -25.333 41.333 -48 60s-44.667 28.667 -66 30v-319h-80v692h157c145.333 0 218 -61.667 218 -185c0 -74.667 -34 -129 -102 -163c-21.333 -10 -44.666 -16.333 -69.999 -19l69 -81zM365.999 506c0 44 -13.334 75 -40.001 93
c-22 14.667 -56.333 22 -103 22h-73v-233h73c46.667 0 81.334 8 104.001 24c26 18.667 39 50 39 94z" />
    <glyph glyph-name="S" unicode="S" horiz-adv-x="445" 
d="M410 176c-1.33301 -58 -22.5 -103.667 -63.5 -137s-90.5 -48.666 -148.5 -45.999c-56 2.66699 -109.333 18.667 -160 48c-12 7.33301 -11.667 21.333 1 42c8.66699 14 18.334 21 29.001 21c2.66699 0 5 -0.666992 7 -2c41.333 -23.333 82.666 -36 123.999 -38
c34.667 -2 64.167 7 88.5 27s36.5 46.333 36.5 79c0 12 -1.66699 24.333 -5 37c-12 40 -40 72.667 -84 98c-72.667 42.667 -116 70.334 -130 83.001c-38.667 35.333 -58 82 -58 140c0 57.333 18.667 101.666 56 132.999c36 29.333 83 42.666 141 39.999
c55.333 -2.66699 105 -17 149 -43l-37 -63c-29.333 20.667 -68.666 32 -117.999 34c-74.667 3.33301 -112.667 -30 -114 -100c-0.666992 -36.667 14 -67.667 44 -93c10.667 -8.66699 41 -26.667 91 -54c103.333 -56 153.666 -124.667 150.999 -206z" />
    <glyph glyph-name="T" unicode="T" horiz-adv-x="472" 
d="M442 623h-166v-623h-80v623h-166v69h412v-69z" />
    <glyph glyph-name="U" unicode="U" horiz-adv-x="510" 
d="M450 299c0 -90 -10.332 -158 -30.999 -204c-30.667 -68.667 -85.334 -103 -164.001 -103c-79.333 0 -134 34.333 -164 103c-20.667 46 -31 114 -31 204v393h79v-396c0 -156.667 38.667 -235 116 -235s116 78.333 116 235v396h79v-393z" />
    <glyph glyph-name="V" unicode="V" horiz-adv-x="434" 
d="M424 692l-167 -692h-80l-167 692h84l104 -468l19 -122l19 122l104 468h84z" />
    <glyph glyph-name="W" unicode="W" horiz-adv-x="583" 
d="M573 692l-125 -692h-78l-69 452l-9 99l-9 -99l-69 -452h-79l-125 692h80l72 -461l13 -133l13 133l65 403h78l64 -403l13 -133l13 133l72 461h80z" />
    <glyph glyph-name="X" unicode="X" horiz-adv-x="425" 
d="M415 0h-82l-103 242l-18 48l-17 -48l-103 -242h-82l162 357l-147 335h81l86 -211l20 -57l20 57l87 211h81l-147 -335z" />
    <glyph glyph-name="Y" unicode="Y" horiz-adv-x="421" 
d="M411 692l-161 -458v-234h-79v234l-161 458h78l112 -341l11 -77l10 77l112 341h78z" />
    <glyph glyph-name="Z" unicode="Z" horiz-adv-x="454" 
d="M424 692l-290 -617h260v-75h-374l292 617h-245v75h357z" />
    <glyph glyph-name="bracketleft" unicode="[" horiz-adv-x="265" 
d="M215 -142h-135v841h135v-45h-66v-750h66v-46z" />
    <glyph glyph-name="backslash" unicode="\" horiz-adv-x="303" 
d="M303 -75h-72l-231 843h73z" />
    <glyph glyph-name="bracketright" unicode="]" horiz-adv-x="265" 
d="M185 -142h-135v46h66v750h-66v45h135v-841z" />
    <glyph glyph-name="asciicircum" unicode="^" horiz-adv-x="380" 
d="M340 433h-75l-75 194l-75 -194h-75l116 259h68z" />
    <glyph glyph-name="underscore" unicode="_" horiz-adv-x="358" 
d="M358 -156h-358v67h358v-67z" />
    <glyph glyph-name="grave" unicode="`" horiz-adv-x="258" 
d="M198 535h-60l-78 163h72z" />
    <glyph glyph-name="a" unicode="a" horiz-adv-x="344" 
d="M309 0l-44.999 58.998c-38.667 -44.667 -77.334 -67 -116.001 -67c-39.333 0 -72 14.167 -98 42.5s-39 62.5 -39 102.5c0 76.667 44 124.334 132 143.001l93 19v52c0 20 -6.33301 37.667 -19 53s-29 23.333 -49 24c-25.333 0 -50 -15.333 -74 -46
c-8 -10 -20 -8.66699 -36 4c-7.33301 6.66699 -11 14.334 -11 23.001c0 7.33301 2.33301 14 7 20c32 40.667 73 61 123 61c38 0 69.5 -14.167 94.5 -42.5s37.5 -61.833 37.5 -100.5v-347zM236.001 92.998l-0.000976562 159.999l-87 -29c-42.667 -14 -64 -43 -64 -87
c0 -22.667 5.83301 -42.667 17.5 -60s26.834 -26.666 45.501 -27.999c34 -2 63.333 12.667 88 44z" />
    <glyph glyph-name="b" unicode="b" horiz-adv-x="415" 
d="M380 236c0 -162.667 -53 -244 -159 -244c-42 0 -78 24.667 -108 74l-48 -66v692c0 16.667 12.333 25 37 25c24 0 36 -8.33301 36 -25v-255c23.333 34 52.333 51 87 51c103.333 0 155 -84 155 -252zM307 238c-0.666992 124 -29.334 186 -86.001 186
c-16.667 0 -33 -5.16699 -49 -15.5s-27.333 -22.833 -34 -37.5v-260c16.667 -36.667 44.334 -55 83.001 -55c57.333 0 86 60.667 86 182z" />
    <glyph glyph-name="c" unicode="c" horiz-adv-x="362" 
d="M334 43c-31.333 -34.667 -72.666 -52.001 -123.999 -52.001c-116.667 0 -175 83 -175 249c0 165.333 58.333 248 175 248c51.333 0 92.666 -17 123.999 -51c2 -3.33301 3 -7 3 -11c0 -10 -5.33301 -19.333 -16 -28c-16 -13.333 -29.333 -14.333 -40 -3
c-18.667 19.333 -42.334 29 -71.001 29c-67.333 0 -101 -61.333 -101 -184c0 -123.333 33.667 -185 101 -185c28.667 0 52.334 10 71.001 30c10.667 10.667 24 9.33398 40 -3.99902c10.667 -8.66699 16 -18 16 -28c0 -4 -1 -7.33301 -3 -10z" />
    <glyph glyph-name="d" unicode="d" horiz-adv-x="395" 
d="M350 0l-48 66c-30 -49.333 -66 -74 -108 -74c-106 0 -159 81.333 -159 244c0 168 51.667 252 155 252c34.667 0 63.667 -17 87 -51v255c0 16.667 12.333 25 37 25c24 0 36 -8.33301 36 -25v-692zM277 111v260c-16 35.333 -43.667 53 -83 53
c-56.667 0 -85.334 -62 -86.001 -186c0 -121.333 28.667 -182 86 -182c38.667 0 66.334 18.333 83.001 55z" />
    <glyph glyph-name="e" unicode="e" horiz-adv-x="396" 
d="M361 220h-251.001c2 -110 35.333 -165 100 -165c26.667 0 50.334 9.66699 71.001 29c10.667 10.667 23.667 9.66699 39 -3c10.667 -8.66699 16 -18 16 -28c0 -4 -1 -7.66699 -3 -11c-29.333 -33.333 -70.333 -50 -123 -50c-116.667 0 -175 82.667 -175 248
c0 167.333 57.333 251 172 251c102 0 153 -78.333 153 -235v-4v-12c0.666992 -17.333 1 -24 1 -20zM287.999 281c-1.33301 96.667 -28.333 145 -81 145c-60 0 -92.333 -50.333 -97 -151z" />
    <glyph glyph-name="f" unicode="f" horiz-adv-x="242" 
d="M288 670c2.66699 -2.66699 4 -6.33301 4 -11c0 -9.33301 -4.66699 -18.333 -14 -27c-13.333 -12 -26 -13.667 -38 -5c-15.333 6.66699 -28.333 10 -39 10c-46 0 -69 -46 -69 -138v-17h99v-61h-99v-421h-75v423l-58 59h58v10c0 136.667 48 205 144 205
c33.333 0 62.333 -9 87 -27z" />
    <glyph glyph-name="g" unicode="g" horiz-adv-x="386" 
d="M366 -68c-1.33301 -42.667 -22.332 -76.332 -62.999 -100.999c-34.667 -21.333 -74.334 -32 -119.001 -32c-109.333 0 -164 32.333 -164 97c0 38 27.333 85.667 82 143c-16.667 17.333 -25 36.666 -25 57.999c0 18 6.33301 37.667 19 59
c-41.333 37.333 -62 86.333 -62 147c0 52 15.667 96.167 47 132.5s69 54.5 113 54.5c11.333 0 27 -2.66699 47 -8h115l-49 -46c31.333 -34.667 47 -79 47 -133c0 -51.333 -15.5 -95.333 -46.5 -132s-68.833 -55 -113.5 -55c-18.667 0 -37 4.33301 -55 13
c-3.33301 -14.667 -2.33301 -26.667 3 -36c9.33301 -17.333 39 -29 89 -35c37.333 -5.33301 68.333 -18 93 -38c29.333 -22.667 43.333 -52 42 -88zM277.001 303.002c0 34 -8.16699 63.167 -24.5 87.5s-35.833 36.5 -58.5 36.5s-42 -12.167 -58 -36.5s-24 -53.5 -24 -87.5
s8 -63 24 -87s35.333 -36 58 -36s42.167 12 58.5 36s24.5 53 24.5 87zM295.001 -65.998c2 32.667 -22.332 52.333 -72.999 59c-30 4 -55.333 10.333 -76 19c-10.667 -13.333 -21.667 -30 -33 -50c-14.667 -26 -22 -46.333 -22 -61c0 -6.66699 2 -12 6 -16
c11.333 -13.333 40.333 -20 87 -20c27.333 0 51 4.66699 71 14c25.333 12.667 38.666 31 39.999 55z" />
    <glyph glyph-name="h" unicode="h" horiz-adv-x="426" 
d="M381 0l-73.999 0.000976562v270c0 112.667 -21.333 166 -64 160c-14.667 -2.66699 -49.667 -27 -105 -73v-357h-73v692c0 16.667 12.333 25 37 25c24 0 36 -8.33301 36 -25v-268c51.333 44.667 90.666 67 117.999 67c83.333 -0.666992 125 -74.334 125 -221.001v-270z
" />
    <glyph glyph-name="i" unicode="i" horiz-adv-x="214" 
d="M175 637c0 -16 -5.66699 -29.833 -17 -41.5s-25 -17.5 -41 -17.5s-29.667 5.83301 -41 17.5s-17 25.5 -17 41.5s5.66699 29.667 17 41s25 17 41 17s29.667 -5.66699 41 -17s17 -25 17 -41zM157 0h-75v421h-41c-14 0 -21 10.333 -21 31c0 20 7 30 21 30h116v-482z" />
    <glyph glyph-name="j" unicode="j" horiz-adv-x="214" 
d="M175 637c0 -16 -5.66699 -29.833 -17 -41.5s-25 -17.5 -41 -17.5s-29.667 5.83301 -41 17.5s-17 25.5 -17 41.5s5.66699 29.667 17 41s25 17 41 17s29.667 -5.66699 41 -17s17 -25 17 -41zM157 0c0 -68 -17.333 -118.333 -52 -151c-3.33301 -3.33301 -8 -5 -14 -5
c-9.33301 0 -18 4 -26 12c-12.667 12 -15 25.333 -7 40c16 30 24 64.667 24 104v421h-41c-14 0 -21 10.333 -21 31c0 20 7 30 21 30h116v-482z" />
    <glyph glyph-name="k" unicode="k" horiz-adv-x="388" 
d="M393 0h-89l-162 250l100 232h108c14 0 21 -10 21 -30c0 -20.667 -7 -31 -21 -31h-52l-73 -163zM134 0h-74v692c0 16.667 12.667 25 38 25c24 0 36 -8.33301 36 -25v-692z" />
    <glyph glyph-name="l" unicode="l" horiz-adv-x="194" 
d="M134 0h-74v692c0 16.667 12.667 25 38 25c24 0 36 -8.33301 36 -25v-692z" />
    <glyph glyph-name="m" unicode="m" horiz-adv-x="630" 
d="M575 0l-74 -0.000976562v270c0 61.333 -3.33301 101 -10 119c-10.667 30.667 -24.667 44.334 -42 41.001c-11.333 -2 -43.333 -26 -96 -72c3.33301 -20 5 -47.333 5 -82v-276h-74v270c0 59.333 -3.33301 99 -10 119c-10.667 31.333 -25 45 -43 41
c-12.667 -2.66699 -43.667 -27 -93 -73v-357h-73v482l54 -73l42 38c34.667 29.333 62.334 44 83.001 44c28 0 52 -13.333 72 -40c6 -8 12.667 -20.333 20 -37c34 28.667 54.667 45.334 62 50.001c25.333 18 46.333 27 63 27c39.333 -0.666992 70.666 -27.334 93.999 -80.001
c13.333 -28.667 20 -74 20 -136v-275z" />
    <glyph glyph-name="n" unicode="n" horiz-adv-x="436" 
d="M381 0h-73.999v270c0 54.667 -4.33301 93 -13 115c-13.333 32.667 -30.333 47.667 -51 45c-14.667 -2.66699 -49.667 -27 -105 -73v-357h-73v482l53 -72c29.333 24.667 50.666 41.334 63.999 50.001c30 20.667 54.667 31 74 31c44 -0.666992 78.667 -27.334 104 -80.001
c14 -28.667 21 -75.667 21 -141v-270z" />
    <glyph glyph-name="o" unicode="o" horiz-adv-x="403" 
d="M368 241c0 -165.333 -55.333 -248.333 -166 -249c-111.333 -0.666992 -167 83 -167 251c0 164.667 55.667 247 167 247c110.667 0 166 -83 166 -249zM295 243c0 123.333 -31 185 -93 185s-93 -62 -93 -186c0 -125.333 31 -188 93 -188s93 63 93 189z" />
    <glyph glyph-name="p" unicode="p" horiz-adv-x="415" 
d="M380 246c0 -168 -51.667 -252 -155 -252c-34.667 0 -63.667 17 -87 51v-239c0 -16.667 -12 -25 -36 -25c-24.667 0 -37 8.33301 -37 25v676l48 -66c30 49.333 66 74 108 74c106 0 159 -81.333 159 -244zM307 244c0 121.333 -28.668 182 -86.001 182
c-38.667 0 -66.334 -18 -83.001 -54v-260c16.667 -36 44.334 -54 83.001 -54c56.667 0 85.334 62 86.001 186z" />
    <glyph glyph-name="q" unicode="q" horiz-adv-x="415" 
d="M350 -194c0 -16.667 -12 -25 -36 -25c-24.667 0 -37 8.33301 -37 25v239c-23.333 -34 -52.333 -51 -87 -51c-103.333 0 -155 84 -155 252c0 162.667 53 244 159 244c42 0 78 -24.667 108 -74l48 66v-676zM277 112v260c-16.667 36 -44.334 54 -83.001 54
c-57.333 0 -86 -60.667 -86 -182c0.666992 -124 29.334 -186 86.001 -186c39.333 0 67 18 83 54z" />
    <glyph glyph-name="r" unicode="r" horiz-adv-x="268" 
d="M253 492l-19.001 -88.999c-13.333 0 -31.666 -7 -54.999 -21c-20 -12 -36.333 -24 -49 -36v-346h-73v482l65 -84c10.667 11.333 25 25.666 43 42.999c34.667 34 64 51 88 51z" />
    <glyph glyph-name="s" unicode="s" horiz-adv-x="352" 
d="M322 125c-2 -42 -19.668 -76 -53.001 -102c-30.667 -24 -67.334 -35 -110.001 -33c-36 1.33301 -73 11.666 -111 30.999c-8.66699 4.66699 -13 13.667 -13 27c0 10 3.66699 19.333 11 28s15 10.667 23 6c30 -15.333 60 -23.666 90 -24.999
c24 -0.666992 45.167 4.83301 63.5 16.5s28.166 29.167 29.499 52.5c0.666992 24.667 -18.666 48.334 -57.999 71.001l-71 39c-27.333 16 -47.333 32.667 -60 50c-17.333 22 -25.333 47.667 -24 77c2 44 17 77 45 99c26 20 60.333 29.333 103 28
c40.667 -1.33301 79.334 -12 116.001 -32l-33 -56c-29.333 13.333 -57.666 20.666 -84.999 21.999c-50 2 -75.333 -18.667 -76 -62c0 -18 8.33301 -34 25 -48c8.66699 -7.33301 26 -18 52 -32c48.667 -26 80 -45.333 94 -58c29.333 -26 43.333 -59 42 -99z" />
    <glyph glyph-name="t" unicode="t" horiz-adv-x="278" 
d="M253 422l-103.001 -0.000976562v-308c0 -37.333 7.66699 -55.666 23 -54.999l58 2c12.667 0.666992 19.334 -9.33301 20.001 -30c0.666992 -20 -5.33301 -30.333 -18 -31c-39.333 -2 -64.333 -2.66699 -75 -2c-54.667 4.66699 -82 43.667 -82 117v306l-2 2l-59 59h61v116
c0 16 12.333 24 37 24s37 -8 37 -24v-116h103v-60z" />
    <glyph glyph-name="u" unicode="u" horiz-adv-x="408" 
d="M367 0l-54 73c-64 -54.667 -109.667 -81.667 -137 -81c-80.667 0 -121 73.333 -121 220v270h73v-270c0 -112 20 -165 60 -159c15.333 2 50.333 26 105 72v357h74v-482z" />
    <glyph glyph-name="v" unicode="v" horiz-adv-x="366" 
d="M351 482l-132 -482h-72l-132 482h74l81 -325l13 -77l12 77l81 325h75z" />
    <glyph glyph-name="w" unicode="w" horiz-adv-x="580" 
d="M565 482l-125 -482h-70l-72 321l-8 53l-8 -53l-73 -321h-69l-125 482h74l87 -407l13 82l68 290h66l68 -290l13 -82l15 82l72 325h74z" />
    <glyph glyph-name="x" unicode="x" horiz-adv-x="364" 
d="M339 0h-76l-91 197l-91 -197h-76l130 255l-114 227h76l75 -170l75 170h76l-114 -227z" />
    <glyph glyph-name="y" unicode="y" horiz-adv-x="393" 
d="M378 482l-133.999 -475.999c-58 -62 -100 -108 -126 -138c-6.66699 -7.33301 -5 -12.666 5 -15.999c22 -7.33301 72.667 -11 152 -11c13.333 0 19.666 -10 18.999 -30c0 -19.333 -6.33301 -29 -19 -29c-138 0 -213.333 18.333 -226 55
c-1.33301 5.33301 -2 10.666 -2 15.999c0 11.333 4.33301 22.666 13 33.999c18 22.667 63 67.667 135 135l-54 18l-126 442h76l73 -279l33 -142l33 142l73 279h75z" />
    <glyph glyph-name="z" unicode="z" horiz-adv-x="370" 
d="M335 482l-207 -419h201v-63h-304l205 419h-171v63h276z" />
    <glyph glyph-name="braceleft" unicode="{" horiz-adv-x="272" 
d="M222 -145c-48.667 2.66699 -82.668 29.334 -102.001 80.001c-13.333 34 -21.666 84.333 -24.999 151c-1.33301 35.333 -5 80.666 -11 135.999c-6 24 -14.333 36 -25 36h-9v40h9c10.667 0 19 12 25 36c2.66699 12 6.33398 57.667 11.001 137
c3.33301 66.667 11.666 117 24.999 151c19.333 50 53.333 76.333 102 79v-57c-19.333 -4 -35.333 -24.667 -48 -62c-10.667 -33.333 -16.667 -72 -18 -116c-2 -40 -3.33301 -65.333 -4 -76c-2 -27.333 -5.33301 -49.833 -10 -67.5s-13.667 -32.5 -27 -44.5
c12.667 -11.333 21.667 -25.666 27 -42.999c6 -24.667 10.667 -72.667 14 -144c1.33301 -44.667 7.33301 -83.334 18 -116.001c12.667 -38 28.667 -58.667 48 -62v-58z" />
    <glyph glyph-name="bar" unicode="|" horiz-adv-x="274" 
d="M174 -221h-74v989h74v-989z" />
    <glyph glyph-name="braceright" unicode="}" horiz-adv-x="272" 
d="M222 258l-8.00098 0.000976562c-10.667 0 -19 -12 -25 -36c-3.33301 -12 -7 -57.333 -11 -136c-4 -66.667 -12.333 -117 -25 -151c-19.333 -50.667 -53.666 -77.334 -102.999 -80.001v58c19.333 3.33301 35.333 24 48 62c10.667 32.667 17 71.334 19 116.001
c1.33301 39.333 2.33301 64.666 3 75.999c2.66699 26.667 6.33398 49 11.001 67s13.334 32.667 26.001 44c-12.667 12 -21.334 26.667 -26.001 44c-6.66699 24 -11.334 72 -14.001 144c-2 44 -8.33301 82.667 -19 116c-12.667 37.333 -28.667 58 -48 62v57
c44 -2 75.333 -21.333 94 -58c14 -27.333 23.667 -69 29 -125c2 -48.667 7.33301 -110 16 -184c6 -24 14.333 -36 25 -36h8v-40z" />
    <glyph glyph-name="asciitilde" unicode="~" horiz-adv-x="378" 
d="M338 687c-24.667 -32.667 -50.333 -49 -77 -49c-21.333 0 -46 7 -74 21c-32.667 16 -55.667 24 -69 24c-12.667 0 -25.667 -9.66699 -39 -29l-39 38c24.667 32.667 50.334 49 77.001 49c21.333 0 45.666 -7 72.999 -21c33.333 -16 56.666 -24 69.999 -24
c12.667 0 25.334 9.66699 38.001 29z" />
    <glyph glyph-name="nonbreakingspace" unicode="&#xa0;" horiz-adv-x="115" 
 />
    <glyph glyph-name="exclamdown" unicode="&#xa1;" horiz-adv-x="313" 
d="M203 453c0 -16.667 -6.16699 -31 -18.5 -43s-26.833 -18 -43.5 -18s-31 6 -43 18s-18 26.333 -18 43c0 17.333 6 32 18 44s26.333 18 43 18s31.167 -6 43.5 -18s18.5 -26.667 18.5 -44zM182 -190h-81l12 486h57z" />
    <glyph glyph-name="cent" unicode="&#xa2;" horiz-adv-x="439" 
d="M389 55c-31.333 -42 -76.667 -63.001 -136 -63.001c-20.667 0 -40 2.66699 -58 8l-16 -80h-53c2 7.33301 9.33301 42.333 22 105c-48.667 36.667 -73 108.334 -73 215.001c0 160.667 55.333 243.667 166 249l14 68h55l-14 -72c39.333 -8 70.333 -27.667 93 -59l-53 -45
c-14.667 18 -32.667 30.333 -54 37l-72 -348c12.667 -7.33301 27 -11 43 -11c33.333 0 61 14 83 42zM226.999 418.999c-49.333 -14.667 -74 -74 -74 -178c0 -52 5 -91 15 -117z" />
    <glyph glyph-name="sterling" unicode="&#xa3;" horiz-adv-x="402" 
d="M359 577l-59.9971 -31.999c-14 21.333 -26.333 36 -37 44c-15.333 11.333 -34.333 17 -57 17c-28.667 0 -50.334 -16.667 -65.001 -50c-12 -25.333 -18 -54 -18 -86c0 -23.333 4 -58 12 -104h88l-11 -60h-68c6.66699 -42 10 -77 10 -105c0 -36 -10 -79.667 -30 -131h213
v-70h-280v63l1 2c18 54 26.667 102.333 26 145c-0.666992 22.667 -4.33398 54.667 -11.001 96h-34l11 60h13c-6.66699 43.333 -10 77.666 -10 102.999c0 55.333 11.667 101 35 137c27.333 44 66.666 66 117.999 66c68.667 0 120 -31.667 154 -95z" />
    <glyph glyph-name="currency" unicode="&#xa4;" horiz-adv-x="492" 
d="M432 611l-47.998 -48.002c-24.667 29.333 -53.334 44 -86.001 44c-44.667 0 -80.334 -21.333 -107.001 -64c-20.667 -34 -33.667 -75.667 -39 -125h171l-13 -58h-161c-0.666992 -6.66699 -1 -14 -1 -22c0 -15.333 0.333008 -28.666 1 -39.999h173l-12 -58h-158
c6 -49.333 19.333 -90.666 40 -123.999c26.667 -42 62 -63 106 -63c32.667 0 61.334 14.667 86.001 44l48 -48c-35.333 -38 -80 -57 -134 -57c-66 0 -118 26 -156 78c-32 43.333 -51.667 100 -59 170h-33l14 58h16c-0.666992 12 -1 22.667 -1 32c0 8 0.333008 18 1 30h-26
l10 58c1.33301 0.666992 7.66602 0.666992 18.999 0c6.66699 70 26 127 58 171c38 52.667 90.333 79 157 79c54 0 98.667 -19 134 -57z" />
    <glyph glyph-name="yen" unicode="&#xa5;" horiz-adv-x="368" 
d="M370 654l-105 -300h58l-7 -45h-67l-26 -74l1 -3h99l-7 -45h-96v-187h-73v187h-104l7 45h95l-1 4l-25 73h-76l7 45h53l-105 300h73l103 -312l10 -75l10 75l102 312h74z" />
    <glyph glyph-name="brokenbar" unicode="&#xa6;" horiz-adv-x="174" 
d="M124 768v-445h-74v445h74zM124 -221h-74v445h74v-445z" />
    <glyph glyph-name="section" unicode="&#xa7;" horiz-adv-x="435" 
d="M372 282c0 -50.667 -13.667 -91.002 -41 -121.002c17.333 -23.333 26 -52.666 26 -87.999c0 -44.667 -12 -82.334 -36 -113.001c-26 -32.667 -61 -49 -105 -49c-58 0 -106.667 41 -146 123l61 28c27.333 -56.667 55.666 -85 84.999 -85c22.667 0 40.667 8.66699 54 26
s20 40.666 20 69.999c0 23.333 -5.5 40.833 -16.5 52.5s-32.5 21.834 -64.5 30.501c-97.333 26.667 -146 83 -146 169c0 50.667 13.667 91.334 41 122.001c-17.333 22.667 -26 51.667 -26 87c0 44.667 12 82.334 36 113.001c26.667 32.667 61.667 49 105 49
c58.667 0 107.334 -41 146.001 -123l-60 -28c-27.333 56.667 -56 85 -86 85c-22 0 -39.667 -8.66699 -53 -26s-20 -40.666 -20 -69.999c0 -23.333 5.5 -40.833 16.5 -52.5s32.5 -21.834 64.5 -30.501c96.667 -26.667 145 -83 145 -169zM305 281.998
c0 30.667 -9 54.667 -27 72c-14.667 13.333 -38 24.333 -70 33c-20.667 6 -37.667 12.333 -51 19c-18 -18 -27 -45 -27 -81c0 -52.667 32.333 -87.667 97 -105c20 -5.33301 37 -11.333 51 -18c18 18 27 44.667 27 80z" />
    <glyph glyph-name="dieresis" unicode="&#xa8;" horiz-adv-x="389" 
d="M329 610c0 -14.667 -5.16699 -27.167 -15.5 -37.5s-22.833 -15.5 -37.5 -15.5s-27.167 5.16699 -37.5 15.5s-15.5 22.833 -15.5 37.5s5.16699 27.167 15.5 37.5s22.833 15.5 37.5 15.5s27.167 -5.16699 37.5 -15.5s15.5 -22.833 15.5 -37.5zM166 610
c0 -14.667 -5.16699 -27.167 -15.5 -37.5s-22.833 -15.5 -37.5 -15.5s-27.167 5.16699 -37.5 15.5s-15.5 22.833 -15.5 37.5s5.16699 27.167 15.5 37.5s22.833 15.5 37.5 15.5s27.167 -5.16699 37.5 -15.5s15.5 -22.833 15.5 -37.5z" />
    <glyph glyph-name="copyright" unicode="&#xa9;" horiz-adv-x="697" 
d="M657 346c0 -85.333 -30.167 -158.166 -90.5 -218.499s-133.166 -90.5 -218.499 -90.5c-84.667 0 -157.167 30.167 -217.5 90.5s-90.5 133.166 -90.5 218.499s30.167 158 90.5 218s132.833 90 217.5 90c85.333 0 158.166 -30 218.499 -90s90.5 -132.667 90.5 -218z
M605 346c0 70.667 -25 131.167 -75 181.5s-110.667 75.5 -182 75.5c-70.667 0 -131 -25.167 -181 -75.5s-75 -110.833 -75 -181.5c0 -71.333 25 -132 75 -182s110.333 -75 181 -75c71.333 0 132 25 182 75s75 110.667 75 182zM436 503c6.66699 -8 4 -16.667 -8 -26
c-8 -6.66699 -15.333 -8 -22 -4c-0.666992 0 -8 5.66699 -22 17c-7.33301 6 -18 9 -32 9c-52.667 0 -79 -51 -79 -153s26.333 -153 79 -153c14 0 24.667 3 32 9c14 12 21.333 18 22 18c6.66699 3.33301 14 2 22 -4c12 -10 14.667 -18.667 8 -26c-22 -26 -50 -39 -84 -39
c-84.667 0 -127 65 -127 195s42.333 195 127 195c34 0 62 -12.667 84 -38z" />
    <glyph glyph-name="ordfeminine" unicode="&#xaa;" horiz-adv-x="324" 
d="M274 325l-35 45c-28 -34 -56.667 -51 -86 -51c-30 0 -54.667 10.667 -74 32s-29 47 -29 77c0 57.333 33 93 99 107l70 15v38c0 15.333 -4.66699 28.833 -14 40.5s-21.666 17.5 -36.999 17.5c-19.333 0 -38 -11.333 -56 -34c-6 -8 -14.833 -7.16699 -26.5 2.5
s-12.834 20.5 -3.50098 32.5c24 30.667 54.667 45.667 92 45c28.667 0 52.5 -10.5 71.5 -31.5s28.5 -45.833 28.5 -74.5v-261zM219 395v120.001l-65 -22c-32.667 -10.667 -49 -32.334 -49 -65.001c0 -17.333 4.5 -32.5 13.5 -45.5s20.5 -19.833 34.5 -20.5
c25.333 -1.33301 47.333 9.66699 66 33z" />
    <glyph glyph-name="guillemotleft" unicode="&#xab;" horiz-adv-x="380" 
d="M320 119l-127 166v92l127 166v-94l-99 -118l99 -118v-94zM186 119l-126 166v92l126 166v-94l-98 -118l98 -118v-94z" />
    <glyph glyph-name="logicalnot" unicode="&#xac;" horiz-adv-x="417" 
d="M366 177l-56 1v128h-259v61h315v-190z" />
    <glyph glyph-name="minus" unicode="&#xad;" horiz-adv-x="336" 
d="M286 311h-236v73h236v-73z" />
    <glyph glyph-name="minus" unicode="&#x2212;" horiz-adv-x="336" 
d="M286 311h-236v73h236v-73z" />
    <glyph glyph-name="registered" unicode="&#xae;" horiz-adv-x="717" 
d="M667 346c0 -85.333 -30.167 -158.166 -90.5 -218.499s-133.166 -90.5 -218.499 -90.5c-84.667 0 -157.167 30.167 -217.5 90.5s-90.5 133.166 -90.5 218.499s30.167 158 90.5 218s132.833 90 217.5 90c85.333 0 158.166 -30 218.499 -90s90.5 -132.667 90.5 -218z
M615 346c0 70.667 -25 131.167 -75 181.5s-110.667 75.5 -182 75.5c-70.667 0 -131 -25.167 -181 -75.5s-75 -110.833 -75 -181.5c0 -71.333 25 -132 75 -182s110.333 -75 181 -75c71.333 0 132 25 182 75s75 110.667 75 182zM478 154h-51c-22 47.333 -40.667 90 -56 128
c-3.33301 8 -6.66602 14.667 -9.99902 20c-8.66699 14 -15.667 21.667 -21 23c-10.667 2 -19.334 3.33301 -26.001 4v-175h-48v384h88c80.667 0 121 -34.667 121 -104c0 -27.333 -8.5 -50 -25.5 -68s-38.833 -29.333 -65.5 -34c8 -8.66699 19.667 -22 35 -40zM427 433
c0 40.667 -25.333 61 -76 61h-37v-123h37c50.667 0 76 20.667 76 62z" />
    <glyph glyph-name="macron" unicode="&#xaf;" horiz-adv-x="460" 
d="M340 594h-220v62h220v-62z" />
    <glyph glyph-name="macron" unicode="&#x2c9;" horiz-adv-x="460" 
d="M340 594h-220v62h220v-62z" />
    <glyph glyph-name="degree" unicode="&#xb0;" horiz-adv-x="378" 
d="M303 596c0 -31.333 -11 -58.166 -33 -80.499s-49 -33.5 -81 -33.5c-31.333 0 -58.166 11.167 -80.499 33.5s-33.5 49.166 -33.5 80.499s11.167 58.166 33.5 80.499s49.166 33.5 80.499 33.5c32 0 59 -11.167 81 -33.5s33 -49.166 33 -80.499zM249 596
c0 16.667 -5.83301 30.834 -17.5 42.501s-25.834 17.5 -42.501 17.5c-16 0 -29.833 -5.83301 -41.5 -17.5s-17.5 -25.834 -17.5 -42.501s5.83301 -30.834 17.5 -42.501s25.5 -17.5 41.5 -17.5c16.667 0 30.834 5.83301 42.501 17.5s17.5 25.834 17.5 42.501z" />
    <glyph glyph-name="plusminus" unicode="&#xb1;" horiz-adv-x="457" 
d="M397 315h-133v-133h-71v133h-133v71h133v133h71v-133h133v-71zM397 72h-337v62h337v-62z" />
    <glyph glyph-name="twosuperior" unicode="&#xb2;" horiz-adv-x="330" 
d="M280 584c0 -21.333 -6.33301 -43.001 -19 -65.001c-8 -14 -25 -38 -51 -72c-28 -35.333 -47.333 -60.666 -58 -75.999c-20 -30 -34.667 -58 -44 -84h161v-45h-219c0 37.333 16.333 82 49 134c14 23.333 42.667 62.666 86 117.999c30 39.333 45 69.333 45 90
c0 20 -5.5 36.167 -16.5 48.5s-24.5 18.5 -40.5 18.5c-22 0 -43.333 -18 -64 -54c-5.33301 -8 -14.333 -9.33301 -27 -4c-13.333 6.66699 -18.333 14.334 -15 23.001c22.667 53.333 58 80 106 80c30.667 0 56.167 -10.5 76.5 -31.5s30.5 -47.833 30.5 -80.5z" />
    <glyph glyph-name="threesuperior" unicode="&#xb3;" horiz-adv-x="323" 
d="M273 368c0 -34.667 -10.334 -64.666 -31.001 -89.999c-22 -27.333 -49.667 -41 -83 -41c-26.667 0 -50 9 -70 27c-18 16 -31 37.333 -39 64c-2.66699 8.66699 2.33301 15.667 15 21c12.667 6 20.334 6 23.001 0c11.333 -22.667 20 -37.667 26 -45
c12.667 -14.667 27.667 -22 45 -22c18.667 0 34 9.33301 46 28c10.667 16.667 16 36 16 58s-6 42 -18 60s-26.667 27 -44 27h-26v42h26c16 0 29.333 8 40 24s16 33.667 16 53c0 20 -5.66699 37.833 -17 53.5s-25.333 23.5 -42 23.5c-24.667 0 -45 -16 -61 -48
c-1.33301 -2.66699 -3.66602 -6.66699 -6.99902 -12c-4.66699 -6 -13 -5.83301 -25 0.5s-16.333 13.166 -13 20.499c19.333 55.333 54.666 83 105.999 83c31.333 0 58 -12.667 80 -38c20 -23.333 30 -51 30 -83c0 -42 -18.333 -74 -55 -96
c20.667 -10.667 36.667 -27.667 48 -51c9.33301 -19.333 14 -39 14 -59z" />
    <glyph glyph-name="acute" unicode="&#xb4;" horiz-adv-x="258" 
d="M198 698l-78 -163h-60l66 163h72z" />
    <glyph glyph-name="mu" unicode="&#xb5;" horiz-adv-x="512" 
d="M409 0l-53 54c-22.667 -18.667 -41.334 -32 -56.001 -40c-24.667 -14 -46 -21 -64 -21c-24.667 0 -48 9 -70 27v-197h-73v660h73v-270c0 -62.667 8.33301 -105.667 25 -129c15.333 -20.667 33 -29.667 53 -27c31.333 4 61 24.333 89 61
c0.666992 1.33301 1.33398 5 2.00098 11v354h74v-483z" />
    <glyph glyph-name="mu" unicode="&#x3bc;" horiz-adv-x="512" 
d="M409 0l-53 54c-22.667 -18.667 -41.334 -32 -56.001 -40c-24.667 -14 -46 -21 -64 -21c-24.667 0 -48 9 -70 27v-197h-73v660h73v-270c0 -62.667 8.33301 -105.667 25 -129c15.333 -20.667 33 -29.667 53 -27c31.333 4 61 24.333 89 61
c0.666992 1.33301 1.33398 5 2.00098 11v354h74v-483z" />
    <glyph glyph-name="paragraph" unicode="&#xb6;" horiz-adv-x="502" 
d="M403 0h-61v628h-63v-628h-61l-2 306c-44.667 0 -82.667 18.833 -114 56.5s-47 83.167 -47 136.5s15.667 98.833 47 136.5s69.333 56.5 114 56.5h187v-692z" />
    <glyph glyph-name="periodcentered" unicode="&#xb7;" horiz-adv-x="243" 
d="M183 330c0 -16.667 -6 -31 -18 -43s-26.333 -18 -43 -18c-17.333 0 -32 6 -44 18s-18 26.333 -18 43s6.16699 31.167 18.5 43.5s26.833 18.5 43.5 18.5s31 -6 43 -18s18 -26.667 18 -44z" />
    <glyph glyph-name="periodcentered" unicode="&#x2219;" horiz-adv-x="243" 
d="M183 330c0 -16.667 -6 -31 -18 -43s-26.333 -18 -43 -18c-17.333 0 -32 6 -44 18s-18 26.333 -18 43s6.16699 31.167 18.5 43.5s26.833 18.5 43.5 18.5s31 -6 43 -18s18 -26.667 18 -44z" />
    <glyph glyph-name="cedilla" unicode="&#xb8;" horiz-adv-x="173" 
d="M148 -73l-60 -126h-63l75 130l-29 77l47 -2z" />
    <glyph glyph-name="onesuperior" unicode="&#xb9;" horiz-adv-x="246" 
d="M196 242h-49v389l-78 -45c-6.66699 -4 -13 -1 -19 9c-6 9.33301 -6 16 0 20l113 77h33v-450z" />
    <glyph glyph-name="ordmasculine" unicode="&#xba;" horiz-adv-x="350" 
d="M300 506c0 -124 -41.667 -186.333 -125 -187s-125 62 -125 188c0 123.333 41.667 185 125 185s125 -62 125 -186zM245 507c0 92.667 -23.333 139 -70 139s-70 -46.667 -70 -140c0 -94 23.333 -141 70 -141s70 47.333 70 142z" />
    <glyph glyph-name="guillemotright" unicode="&#xbb;" horiz-adv-x="380" 
d="M320 285l-127 -166v94l98 118l-98 118v94l127 -166v-92zM186 285l-126 -166v94l99 118l-99 118v94l126 -166v-92z" />
    <glyph glyph-name="onequarter" unicode="&#xbc;" horiz-adv-x="615" 
d="M565 112h-27v-112h-51v112h-153v45l151 292c4.66699 8.66699 13.667 10 27 4c14 -6.66699 19 -14.667 15 -24l-141 -273h104l9 136h39v-136h22zM478 693l-295 -693h-38l292 693h41zM196 242h-49v389l-78 -45c-6.66699 -4 -13 -1 -19 9c-6 9.33301 -6 16 0 20l113 77h33
v-450z" />
    <glyph glyph-name="onehalf" unicode="&#xbd;" horiz-adv-x="672" 
d="M622 342c0 -21.333 -6.33301 -43 -19 -65c-8 -14.667 -25 -38.667 -51 -72c-28 -35.333 -47.333 -61 -58 -77c-20 -29.333 -34.667 -57.333 -44 -84h161v-44h-219c0 37.333 16.333 82 49 134c14 22.667 42.667 62 86 118c30 39.333 45 69.333 45 90
c0 19.333 -5.5 35.333 -16.5 48s-24.5 19 -40.5 19c-22 0 -43.333 -18 -64 -54c-5.33301 -8.66699 -14.333 -10 -27 -4c-13.333 6.66699 -18.333 14.334 -15 23.001c22.667 52.667 58 79 106 79c30.667 0 56.167 -10.333 76.5 -31s30.5 -47.334 30.5 -80.001zM478 693
l-295 -693h-38l292 693h41zM196 242h-49v389l-78 -45c-6.66699 -4 -13 -1 -19 9c-6 9.33301 -6 16 0 20l113 77h33v-450z" />
    <glyph glyph-name="threequarters" unicode="&#xbe;" horiz-adv-x="673" 
d="M623 112h-27v-112h-51v112h-153v45l151 292c4.66699 8.66699 13.667 10 27 4c14 -6.66699 19 -14.667 15 -24l-141 -273h104l9 136h39v-136h22zM536 693l-295 -693h-38l292 693h41zM273 368c0 -34.667 -10.334 -64.666 -31.001 -89.999c-22 -27.333 -49.667 -41 -83 -41
c-26.667 0 -50 9 -70 27c-18 16 -31 37.333 -39 64c-2.66699 8.66699 2.33301 15.667 15 21c12.667 6 20.334 6 23.001 0c11.333 -22.667 20 -37.667 26 -45c12.667 -14.667 27.667 -22 45 -22c18.667 0 34 9.33301 46 28c10.667 16.667 16 36 16 58s-6 42 -18 60
s-26.667 27 -44 27h-26v42h26c16 0 29.333 8 40 24s16 33.667 16 53c0 20 -5.66699 37.833 -17 53.5s-25.333 23.5 -42 23.5c-24.667 0 -45 -16 -61 -48c-1.33301 -2.66699 -3.66602 -6.66699 -6.99902 -12c-4.66699 -6 -13 -5.83301 -25 0.5s-16.333 13.166 -13 20.499
c19.333 55.333 54.666 83 105.999 83c31.333 0 58 -12.667 80 -38c20 -23.333 30 -51 30 -83c0 -42 -18.333 -74 -55 -96c20.667 -10.667 36.667 -27.667 48 -51c9.33301 -19.333 14 -39 14 -59z" />
    <glyph glyph-name="questiondown" unicode="&#xbf;" horiz-adv-x="398" 
d="M266 453c0 -16.667 -6.16699 -31 -18.5 -43s-26.833 -18 -43.5 -18s-31 6 -43 18s-18 26.333 -18 43c0 17.333 6 32 18 44s26.333 18 43 18s31.167 -6 43.5 -18s18.5 -26.667 18.5 -44zM358 -79c-26.667 -77.333 -78.999 -115.998 -156.999 -115.998
c-49.333 0 -87.333 17 -114 51c-24.667 30 -37 68.667 -37 116c0 25.333 7 51 21 77c0.666992 1.33301 15.667 23.666 45 66.999c38 56.667 57.333 116.667 58 180h62c1.33301 -10 2 -19.667 2 -29c0 -28 -6 -61 -18 -99c-8 -26.667 -26.333 -62.334 -55 -107.001
c-24 -38 -36.333 -67.667 -37 -89c-0.666992 -26 3.66602 -48 12.999 -66c12.667 -23.333 32.667 -35 60 -35c39.333 0 68 23.667 86 71z" />
    <glyph glyph-name="Agrave" unicode="&#xc0;" 
d="M267 750h-60l-78 163h72zM476 0h-81l-52 204h-210l-52 -204h-81l197 692h82zM326 270l-76 288l-12 62l-12 -62l-76 -288h176z" />
    <glyph glyph-name="Aacute" unicode="&#xc1;" 
d="M348 913l-79 -163h-59l65 163h73zM476 0h-81l-52 204h-210l-52 -204h-81l197 692h82zM326 270l-76 288l-12 62l-12 -62l-76 -288h176z" />
    <glyph glyph-name="Acircumflex" unicode="&#xc2;" 
d="M357 738h-64l-55 95l-55 -95h-64l81 126h76zM476 0h-81l-52 204h-210l-52 -204h-81l197 692h82zM326 270l-76 288l-12 62l-12 -62l-76 -288h176z" />
    <glyph glyph-name="Atilde" unicode="&#xc3;" 
d="M371 784c-20 -33.333 -43.333 -49.334 -70 -48.001c-16.667 0.666992 -36.334 7.33398 -59.001 20.001c-27.333 14.667 -47.333 21.667 -60 21c-9.33301 0 -20.666 -10.333 -33.999 -31l-30 35c22.667 34 46 50.333 70 49c16 0 35.667 -6.66699 59 -20
c30.667 -16.667 52 -23.667 64 -21c9.33301 2.66699 19.333 12.667 30 30zM476 -0.000976562h-81l-52 204h-210l-52 -204h-81l197 692h82zM326 269.999l-76 288l-12 62l-12 -62l-76 -288h176z" />
    <glyph glyph-name="Adieresis" unicode="&#xc4;" 
d="M373 803c0 -14.667 -5.16699 -27.167 -15.5 -37.5s-22.833 -15.5 -37.5 -15.5s-27.167 5.16699 -37.5 15.5s-15.5 22.833 -15.5 37.5s5.16699 27.167 15.5 37.5s22.833 15.5 37.5 15.5s27.167 -5.16699 37.5 -15.5s15.5 -22.833 15.5 -37.5zM209 803
c0 -14.667 -5.16699 -27.167 -15.5 -37.5s-22.5 -15.5 -36.5 -15.5c-14.667 0 -27.167 5.16699 -37.5 15.5s-15.5 22.833 -15.5 37.5s5.16699 27.167 15.5 37.5s22.833 15.5 37.5 15.5c14 0 26.167 -5.16699 36.5 -15.5s15.5 -22.833 15.5 -37.5zM476 0h-81l-52 204h-210
l-52 -204h-81l197 692h82zM326 270l-76 288l-12 62l-12 -62l-76 -288h176z" />
    <glyph glyph-name="Aring" unicode="&#xc5;" 
d="M325 818c0 -24.667 -8.5 -45.834 -25.5 -63.501s-37.5 -26.5 -61.5 -26.5c-24.667 0 -45.334 8.83301 -62.001 26.5s-25 38.834 -25 63.501c0 24 8.33301 45 25 63s37.334 27 62.001 27c24 0 44.5 -9 61.5 -27s25.5 -39 25.5 -63zM476 0h-81l-52 204h-210l-52 -204h-81
l197 692h82zM284 818c0 12.667 -4.5 23.834 -13.5 33.501s-19.833 14.5 -32.5 14.5c-13.333 0 -24.5 -4.83301 -33.5 -14.5s-13.5 -20.834 -13.5 -33.501c0 -13.333 4.66699 -24.833 14 -34.5s20.333 -14.5 33 -14.5s23.5 4.83301 32.5 14.5s13.5 21.167 13.5 34.5zM326 270
l-76 288l-12 62l-12 -62l-76 -288h176z" />
    <glyph glyph-name="AE" unicode="&#xc6;" horiz-adv-x="737" 
d="M707 0h-322l-6 204h-196l-97 -204h-86l340 692h342v-78h-253l15 -219h206c14.667 0 22 -11.333 22 -34c0 -22 -7.33301 -33 -22 -33h-200l14 -249h243v-79zM376 275l-11 324l-49 -112l-100 -212h160z" />
    <glyph glyph-name="Ccedilla" unicode="&#xc7;" horiz-adv-x="445" 
d="M419 62c-35.333 -42 -77.667 -65.002 -127 -69.002l26 -66l-61 -126h-62l75 130l-23 62c-138 12.667 -207 130.334 -207 353.001c0 97.333 14 175.333 42 234c38 80 100.667 120 188 120c60 0 109.667 -23 149 -69c2.66699 -3.33301 4 -7 4 -11
c0 -9.33301 -4.83301 -18.5 -14.5 -27.5s-19.5 -13.5 -29.5 -13.5c-6.66699 0 -11.667 2.33301 -15 7c-26 30.667 -57.333 46 -94 46c-59.333 0 -101.333 -35.667 -126 -107c-16.667 -47.333 -25 -107 -25 -179c0 -71.333 8.33301 -130.666 25 -177.999
c24.667 -71.333 66.667 -107 126 -107c36.667 0 68 15.333 94 46c3.33301 4 8.33301 6 15 6c10 0 19.833 -4.33301 29.5 -13s14.5 -18 14.5 -28c0 -4 -1.33301 -7.33301 -4 -10z" />
    <glyph glyph-name="Egrave" unicode="&#xc8;" horiz-adv-x="462" 
d="M297 750h-60l-78 163h72zM412 0h-342v692h342v-74h-262v-223h206c14.667 0 22 -11.333 22 -34c0 -22 -7.33301 -33 -22 -33h-206v-253h262v-75z" />
    <glyph glyph-name="Eacute" unicode="&#xc9;" horiz-adv-x="462" 
d="M319 913l-79 -163h-59l65 163h73zM412 0h-342v692h342v-74h-262v-223h206c14.667 0 22 -11.333 22 -34c0 -22 -7.33301 -33 -22 -33h-206v-253h262v-75z" />
    <glyph glyph-name="Ecircumflex" unicode="&#xca;" horiz-adv-x="462" 
d="M364 738h-64l-55 95l-55 -95h-64l81 126h76zM412 0h-342v692h342v-74h-262v-223h206c14.667 0 22 -11.333 22 -34c0 -22 -7.33301 -33 -22 -33h-206v-253h262v-75z" />
    <glyph glyph-name="Edieresis" unicode="&#xcb;" horiz-adv-x="462" 
d="M378 803c0 -14.667 -5.16699 -27.167 -15.5 -37.5s-22.833 -15.5 -37.5 -15.5s-27.167 5.16699 -37.5 15.5s-15.5 22.833 -15.5 37.5s5.16699 27.167 15.5 37.5s22.833 15.5 37.5 15.5s27.167 -5.16699 37.5 -15.5s15.5 -22.833 15.5 -37.5zM215 803
c0 -14.667 -5.16699 -27.167 -15.5 -37.5s-22.833 -15.5 -37.5 -15.5s-27.167 5.16699 -37.5 15.5s-15.5 22.833 -15.5 37.5s5.16699 27.167 15.5 37.5s22.833 15.5 37.5 15.5s27.167 -5.16699 37.5 -15.5s15.5 -22.833 15.5 -37.5zM412 0h-342v692h342v-74h-262v-223h206
c14.667 0 22 -11.333 22 -34c0 -22 -7.33301 -33 -22 -33h-206v-253h262v-75z" />
    <glyph glyph-name="Igrave" unicode="&#xcc;" horiz-adv-x="218" 
d="M163 750h-59l-79 163h73zM150 0h-80v692h80v-692z" />
    <glyph glyph-name="Iacute" unicode="&#xcd;" horiz-adv-x="230" 
d="M202 913l-78 -163h-60l66 163h72zM157 0h-80v692h80v-692z" />
    <glyph glyph-name="Icircumflex" unicode="&#xce;" horiz-adv-x="220" 
d="M230 738h-64l-55 95l-55 -95h-64l81 126h76zM150 0h-80v692h80v-692z" />
    <glyph glyph-name="Idieresis" unicode="&#xcf;" horiz-adv-x="230" 
d="M252 803c0 -14.667 -5.16699 -27.167 -15.5 -37.5s-22.833 -15.5 -37.5 -15.5c-14 0 -26.167 5.16699 -36.5 15.5s-15.5 22.833 -15.5 37.5s5.16699 27.167 15.5 37.5s22.5 15.5 36.5 15.5c14.667 0 27.167 -5.16699 37.5 -15.5s15.5 -22.833 15.5 -37.5zM89 803
c0 -14.667 -5.16699 -27.167 -15.5 -37.5s-22.833 -15.5 -37.5 -15.5s-27.167 5.16699 -37.5 15.5s-15.5 22.833 -15.5 37.5s5.16699 27.167 15.5 37.5s22.833 15.5 37.5 15.5s27.167 -5.16699 37.5 -15.5s15.5 -22.833 15.5 -37.5zM158 0h-80v692h80v-692z" />
    <glyph glyph-name="Eth" unicode="&#xd0;" horiz-adv-x="549" 
d="M499 346c0 -65.333 -2 -117.334 -6 -156.001c-6.66699 -68 -28.167 -116.667 -64.5 -146s-90.166 -44 -161.499 -44h-165v316h-52v61h52v315h165c74 0 128.667 -15 164 -45c33.333 -29.333 53.666 -75.666 60.999 -138.999c4.66699 -37.333 7 -91.333 7 -162z
M420 345.999c0 63.333 -2 113 -6 149c-6 55.333 -21.667 91 -47 107c-20 12.667 -53.667 19 -101 19h-84v-244h55v-61h-55v-245h85c46 0 79.333 6.66699 100 20c25.333 16 41 51.667 47 107c4 36.667 6 86 6 148z" />
    <glyph glyph-name="Ntilde" unicode="&#xd1;" horiz-adv-x="530" 
d="M384 784c-20 -33.333 -43.334 -49.334 -70.001 -48.001c-16.667 0.666992 -36.334 7.33398 -59.001 20.001c-27.333 14.667 -47.333 21.667 -60 21c-10 0 -21.333 -10.333 -34 -31l-30 35c22 34 45 50.333 69 49c16.667 0 36.334 -6.66699 59.001 -20
c31.333 -16.667 53 -23.667 65 -21c8.66699 2.66699 18.334 12.667 29.001 30zM459.999 -0.000976562h-69l-221 464l-23 71l2 -96v-439h-79v692h72l213 -447l28 -76l-2 116v407h79v-692z" />
    <glyph glyph-name="Ograve" unicode="&#xd2;" horiz-adv-x="520" 
d="M322 750h-60l-78 163h72zM480 346c0 -95.333 -13 -172.333 -39 -231c-36.667 -82 -97 -123 -181 -123c-146.667 0 -220 118 -220 354s73.333 354 220 354s220 -118 220 -354zM401 346c0 70.667 -7.66602 129.334 -22.999 176.001c-22.667 73.333 -62 110 -118 110
c-55.333 0 -94.666 -36.667 -117.999 -110c-14.667 -46.667 -22 -105.334 -22 -176.001c0 -70 7.33301 -128.333 22 -175c23.333 -73.333 62.666 -110 117.999 -110s94.666 36.667 117.999 110c15.333 46.667 23 105 23 175z" />
    <glyph glyph-name="Oacute" unicode="&#xd3;" horiz-adv-x="520" 
d="M331 913l-79 -163h-59l65 163h73zM480 346c0 -95.333 -13 -172.333 -39 -231c-36.667 -82 -97 -123 -181 -123c-146.667 0 -220 118 -220 354s73.333 354 220 354s220 -118 220 -354zM401 346c0 70.667 -7.66602 129.334 -22.999 176.001
c-22.667 73.333 -62 110 -118 110c-55.333 0 -94.666 -36.667 -117.999 -110c-14.667 -46.667 -22 -105.334 -22 -176.001c0 -70 7.33301 -128.333 22 -175c23.333 -73.333 62.666 -110 117.999 -110s94.666 36.667 117.999 110c15.333 46.667 23 105 23 175z" />
    <glyph glyph-name="Ocircumflex" unicode="&#xd4;" horiz-adv-x="520" 
d="M379 738h-64l-55 95l-55 -95h-64l81 126h76zM480 346c0 -95.333 -13 -172.333 -39 -231c-36.667 -82 -97 -123 -181 -123c-146.667 0 -220 118 -220 354s73.333 354 220 354s220 -118 220 -354zM401 346c0 70.667 -7.66602 129.334 -22.999 176.001
c-22.667 73.333 -62 110 -118 110c-55.333 0 -94.666 -36.667 -117.999 -110c-14.667 -46.667 -22 -105.334 -22 -176.001c0 -70 7.33301 -128.333 22 -175c23.333 -73.333 62.666 -110 117.999 -110s94.666 36.667 117.999 110c15.333 46.667 23 105 23 175z" />
    <glyph glyph-name="Otilde" unicode="&#xd5;" horiz-adv-x="520" 
d="M391 784c-20 -33.333 -43.333 -49.334 -70 -48.001c-16.667 0.666992 -36.334 7.33398 -59.001 20.001c-27.333 14.667 -47.333 21.667 -60 21c-9.33301 0 -20.666 -10.333 -33.999 -31l-30 35c22.667 34 46 50.333 70 49c16 0 35.667 -6.66699 59 -20
c30.667 -16.667 52 -23.667 64 -21c9.33301 2.66699 19.333 12.667 30 30zM480 345.999c0 -95.333 -13 -172.333 -39 -231c-36.667 -82 -97 -123 -181 -123c-146.667 0 -220 118 -220 354s73.333 354 220 354s220 -118 220 -354zM401 345.999
c0 70.667 -7.66602 129.334 -22.999 176.001c-22.667 73.333 -62 110 -118 110c-55.333 0 -94.666 -36.667 -117.999 -110c-14.667 -46.667 -22 -105.334 -22 -176.001c0 -70 7.33301 -128.333 22 -175c23.333 -73.333 62.666 -110 117.999 -110s94.666 36.667 117.999 110
c15.333 46.667 23 105 23 175z" />
    <glyph glyph-name="Odieresis" unicode="&#xd6;" horiz-adv-x="520" 
d="M395 803c0 -14.667 -5.16699 -27.167 -15.5 -37.5s-22.833 -15.5 -37.5 -15.5s-27.167 5.16699 -37.5 15.5s-15.5 22.833 -15.5 37.5s5.16699 27.167 15.5 37.5s22.833 15.5 37.5 15.5s27.167 -5.16699 37.5 -15.5s15.5 -22.833 15.5 -37.5zM231 803
c0 -14.667 -5.16699 -27.167 -15.5 -37.5s-22.5 -15.5 -36.5 -15.5c-14.667 0 -27.167 5.16699 -37.5 15.5s-15.5 22.833 -15.5 37.5s5.16699 27.167 15.5 37.5s22.833 15.5 37.5 15.5c14 0 26.167 -5.16699 36.5 -15.5s15.5 -22.833 15.5 -37.5zM480 346
c0 -95.333 -13 -172.333 -39 -231c-36.667 -82 -97 -123 -181 -123c-146.667 0 -220 118 -220 354s73.333 354 220 354s220 -118 220 -354zM401 346c0 70.667 -7.66602 129.334 -22.999 176.001c-22.667 73.333 -62 110 -118 110c-55.333 0 -94.666 -36.667 -117.999 -110
c-14.667 -46.667 -22 -105.334 -22 -176.001c0 -70 7.33301 -128.333 22 -175c23.333 -73.333 62.666 -110 117.999 -110s94.666 36.667 117.999 110c15.333 46.667 23 105 23 175z" />
    <glyph glyph-name="multiply" unicode="&#xd7;" horiz-adv-x="331" 
d="M281 277l-45 -45l-70 71l-71 -71l-45 45l71 71l-71 70l45 45l71 -70l70 70l45 -45l-70 -70z" />
    <glyph glyph-name="Oslash" unicode="&#xd8;" horiz-adv-x="524" 
d="M484 346c0 -96 -13.332 -173.334 -39.999 -232.001c-36.667 -81.333 -97.334 -122 -182.001 -122c-29.333 0 -56.333 5.66699 -81 17l-14 -41h-60l25 73c-61.333 56.667 -92 158.334 -92 305.001c0 235.333 74 353 222 353c30.667 0 59 -6 85 -18l16 48h60l-28 -82
c59.333 -56.667 89 -157 89 -301zM401.001 345.999c0 92.667 -12.334 162 -37.001 208l-158 -471c16.667 -12 35.334 -18 56.001 -18c54.667 0 93.667 36 117 108c14.667 46 22 103.667 22 173zM322 606.999c-18 13.333 -38 20.001 -60 20.001
c-54.667 0 -93.667 -36 -117 -108c-14.667 -46.667 -22 -104.334 -22 -173.001c0 -95.333 13.333 -166.333 40 -213z" />
    <glyph glyph-name="Ugrave" unicode="&#xd9;" horiz-adv-x="510" 
d="M326 750h-60l-78 163h72zM450 299c0 -90 -10.332 -158.333 -30.999 -205c-30.667 -68 -85.334 -102 -164.001 -102c-79.333 0 -134 34.333 -164 103c-20.667 46 -31 114 -31 204v393h79v-396c0 -156.667 38.667 -235 116 -235s116 78.333 116 235v396h79v-393z" />
    <glyph glyph-name="Uacute" unicode="&#xda;" horiz-adv-x="510" 
d="M329 913l-79 -163h-59l65 163h73zM450 299c0 -90 -10.332 -158.333 -30.999 -205c-30.667 -68 -85.334 -102 -164.001 -102c-79.333 0 -134 34.333 -164 103c-20.667 46 -31 114 -31 204v393h79v-396c0 -156.667 38.667 -235 116 -235s116 78.333 116 235v396h79v-393z
" />
    <glyph glyph-name="Ucircumflex" unicode="&#xdb;" horiz-adv-x="510" 
d="M374 738h-64l-55 94l-55 -94h-64l81 125h76zM450 299c0 -90 -10.332 -158.333 -30.999 -205c-30.667 -68 -85.334 -102 -164.001 -102c-79.333 0 -134 34.333 -164 103c-20.667 46 -31 114 -31 204v393h79v-396c0 -156.667 38.667 -235 116 -235s116 78.333 116 235v396
h79v-393z" />
    <glyph glyph-name="Udieresis" unicode="&#xdc;" horiz-adv-x="510" 
d="M390 803c0 -14.667 -5.16699 -27.167 -15.5 -37.5s-22.833 -15.5 -37.5 -15.5s-27.167 5.16699 -37.5 15.5s-15.5 22.833 -15.5 37.5s5.16699 27.167 15.5 37.5s22.833 15.5 37.5 15.5s27.167 -5.16699 37.5 -15.5s15.5 -22.833 15.5 -37.5zM226 803
c0 -14.667 -5.16699 -27.167 -15.5 -37.5s-22.5 -15.5 -36.5 -15.5c-14.667 0 -27.167 5.16699 -37.5 15.5s-15.5 22.833 -15.5 37.5s5.16699 27.167 15.5 37.5s22.833 15.5 37.5 15.5c14 0 26.167 -5.16699 36.5 -15.5s15.5 -22.833 15.5 -37.5zM450 299
c0 -90 -10.332 -158.333 -30.999 -205c-30.667 -68 -85.334 -102 -164.001 -102c-79.333 0 -134 34.333 -164 103c-20.667 46 -31 114 -31 204v393h79v-396c0 -156.667 38.667 -235 116 -235s116 78.333 116 235v396h79v-393z" />
    <glyph glyph-name="Yacute" unicode="&#xdd;" horiz-adv-x="421" 
d="M279 913l-79 -163h-59l65 163h73zM411 692l-161 -458v-234h-79v234l-161 458h78l112 -341l11 -77l10 77l112 341h78z" />
    <glyph glyph-name="Thorn" unicode="&#xde;" horiz-adv-x="480" 
d="M430 346c0 -129.333 -77 -194 -231 -194h-69v-152h-80v692h80v-153h71c152.667 0 229 -64.333 229 -193zM351 346c0 46 -14.333 78.667 -43 98c-24 16 -60.333 24 -109 24h-69v-245h69c50 0 86.667 8 110 24c28 19.333 42 52.333 42 99z" />
    <glyph glyph-name="germandbls" unicode="&#xdf;" horiz-adv-x="526" 
d="M496 125c-2 -42 -19.665 -76 -52.998 -102c-30.667 -24 -67.334 -35 -110.001 -33c-36 1.33301 -73 11.666 -111 30.999c-8.66699 4.66699 -13 13.667 -13 27c0 10 3.66699 19.333 11 28s15 10.667 23 6c30 -15.333 60 -23.666 90 -24.999
c24 -0.666992 45.167 4.83301 63.5 16.5s28.166 29.167 29.499 52.5c0.666992 24.667 -18.666 48.334 -57.999 71.001l-71 39c-27.333 16 -47.333 32.667 -60 50c-17.333 22 -25.333 47.667 -24 77c2.66699 57.333 27 95.666 73 114.999v21c0 92 -23 138 -69 138
s-69 -46 -69 -138v-499h-75v423l-58 59h58v10c0 136.667 48 205 144 205s144 -68.333 144 -205l-1 -68c-50.667 0 -76.334 -20.667 -77.001 -62c0 -18 8.33301 -34 25 -48c8.66699 -7.33301 26 -18 52 -32c48.667 -26 80 -45.333 94 -58c29.333 -26 43.333 -59 42 -99z" />
    <glyph glyph-name="agrave" unicode="&#xe0;" horiz-adv-x="344" 
d="M228 535h-60l-78 163h72zM309 0l-44.999 58.998c-38.667 -44.667 -77.334 -67 -116.001 -67c-39.333 0 -72 14.167 -98 42.5s-39 62.5 -39 102.5c0 76.667 44 124.334 132 143.001l93 19v52c0 20 -6.33301 37.667 -19 53s-29 23.333 -49 24
c-25.333 0 -50 -15.333 -74 -46c-8 -10 -20 -8.66699 -36 4c-7.33301 6.66699 -11 14.334 -11 23.001c0 7.33301 2.33301 14 7 20c32 40.667 73 61 123 61c38 0 69.5 -14.167 94.5 -42.5s37.5 -61.833 37.5 -100.5v-347zM236.001 92.998l-0.000976562 159.999l-87 -29
c-42.667 -14 -64 -43 -64 -87c0 -22.667 5.83301 -42.667 17.5 -60s26.834 -26.666 45.501 -27.999c34 -2 63.333 12.667 88 44z" />
    <glyph glyph-name="aacute" unicode="&#xe1;" horiz-adv-x="344" 
d="M251 698l-78 -163h-60l66 163h72zM309 0l-44.999 58.998c-38.667 -44.667 -77.334 -67 -116.001 -67c-39.333 0 -72 14.167 -98 42.5s-39 62.5 -39 102.5c0 76.667 44 124.334 132 143.001l93 19v52c0 20 -6.33301 37.667 -19 53s-29 23.333 -49 24
c-25.333 0 -50 -15.333 -74 -46c-8 -10 -20 -8.66699 -36 4c-7.33301 6.66699 -11 14.334 -11 23.001c0 7.33301 2.33301 14 7 20c32 40.667 73 61 123 61c38 0 69.5 -14.167 94.5 -42.5s37.5 -61.833 37.5 -100.5v-347zM236.001 92.998l-0.000976562 159.999l-87 -29
c-42.667 -14 -64 -43 -64 -87c0 -22.667 5.83301 -42.667 17.5 -60s26.834 -26.666 45.501 -27.999c34 -2 63.333 12.667 88 44z" />
    <glyph glyph-name="acircumflex" unicode="&#xe2;" horiz-adv-x="344" 
d="M294 547h-64l-55 95l-55 -95h-64l81 126h76zM309 0l-44.999 58.998c-38.667 -44.667 -77.334 -67 -116.001 -67c-39.333 0 -72 14.167 -98 42.5s-39 62.5 -39 102.5c0 76.667 44 124.334 132 143.001l93 19v52c0 20 -6.33301 37.667 -19 53s-29 23.333 -49 24
c-25.333 0 -50 -15.333 -74 -46c-8 -10 -20 -8.66699 -36 4c-7.33301 6.66699 -11 14.334 -11 23.001c0 7.33301 2.33301 14 7 20c32 40.667 73 61 123 61c38 0 69.5 -14.167 94.5 -42.5s37.5 -61.833 37.5 -100.5v-347zM236.001 92.998l-0.000976562 159.999l-87 -29
c-42.667 -14 -64 -43 -64 -87c0 -22.667 5.83301 -42.667 17.5 -60s26.834 -26.666 45.501 -27.999c34 -2 63.333 12.667 88 44z" />
    <glyph glyph-name="atilde" unicode="&#xe3;" horiz-adv-x="344" 
d="M298 599c-20 -33.333 -43.334 -49.332 -70.001 -47.999c-16.667 0.666992 -36.334 7.33398 -59.001 20.001c-27.333 15.333 -47.333 22.666 -60 21.999c-10 -0.666992 -21.333 -11 -34 -31l-30 35c22.667 33.333 45.667 49.666 69 48.999
c16.667 -0.666992 36.334 -7.33398 59.001 -20.001c31.333 -17.333 53 -24.666 65 -21.999c8.66699 2.66699 18.334 12.667 29.001 30zM308.999 0.000976562l-44.999 58.998c-38.667 -44.667 -77.334 -67 -116.001 -67c-39.333 0 -72 14.167 -98 42.5s-39 62.5 -39 102.5
c0 76.667 44 124.334 132 143.001l93 19v52c0 20 -6.33301 37.667 -19 53s-29 23.333 -49 24c-25.333 0 -50 -15.333 -74 -46c-8 -10 -20 -8.66699 -36 4c-7.33301 6.66699 -11 14.334 -11 23.001c0 7.33301 2.33301 14 7 20c32 40.667 73 61 123 61
c38 0 69.5 -14.167 94.5 -42.5s37.5 -61.833 37.5 -100.5v-347zM236 92.999l-0.000976562 159.999l-87 -29c-42.667 -14 -64 -43 -64 -87c0 -22.667 5.83301 -42.667 17.5 -60s26.834 -26.666 45.501 -27.999c34 -2 63.333 12.667 88 44z" />
    <glyph glyph-name="adieresis" unicode="&#xe4;" horiz-adv-x="348" 
d="M313 610c0 -14.667 -5.16699 -27.167 -15.5 -37.5s-22.833 -15.5 -37.5 -15.5s-27.167 5.16699 -37.5 15.5s-15.5 22.833 -15.5 37.5s5.16699 27.167 15.5 37.5s22.833 15.5 37.5 15.5s27.167 -5.16699 37.5 -15.5s15.5 -22.833 15.5 -37.5zM150 610
c0 -14.667 -5.16699 -27.167 -15.5 -37.5s-22.833 -15.5 -37.5 -15.5s-27.167 5.16699 -37.5 15.5s-15.5 22.833 -15.5 37.5s5.16699 27.167 15.5 37.5s22.833 15.5 37.5 15.5s27.167 -5.16699 37.5 -15.5s15.5 -22.833 15.5 -37.5zM309 0l-44.999 58.998
c-38.667 -44.667 -77.334 -67 -116.001 -67c-39.333 0 -72 14.167 -98 42.5s-39 62.5 -39 102.5c0 76.667 44 124.334 132 143.001l93 19v52c0 20 -6.33301 37.667 -19 53s-29 23.333 -49 24c-25.333 0 -50 -15.333 -74 -46c-8 -10 -20 -8.66699 -36 4
c-7.33301 6.66699 -11 14.334 -11 23.001c0 7.33301 2.33301 14 7 20c32 40.667 73 61 123 61c38 0 69.5 -14.167 94.5 -42.5s37.5 -61.833 37.5 -100.5v-347zM236.001 92.998l-0.000976562 159.999l-87 -29c-42.667 -14 -64 -43 -64 -87
c0 -22.667 5.83301 -42.667 17.5 -60s26.834 -26.666 45.501 -27.999c34 -2 63.333 12.667 88 44z" />
    <glyph glyph-name="aring" unicode="&#xe5;" horiz-adv-x="344" 
d="M262 633c0 -24 -8.33301 -44.833 -25 -62.5s-37.334 -26.5 -62.001 -26.5c-24 0 -44.5 8.83301 -61.5 26.5s-25.5 38.5 -25.5 62.5c0 24.667 8.5 46 25.5 64s37.5 27 61.5 27c24.667 0 45.334 -9 62.001 -27s25 -39.333 25 -64zM309 0l-44.999 58.998
c-38.667 -44.667 -77.334 -67 -116.001 -67c-39.333 0 -72 14.167 -98 42.5s-39 62.5 -39 102.5c0 76.667 44 124.334 132 143.001l93 19v52c0 20 -6.33301 37.667 -19 53s-29 23.333 -49 24c-25.333 0 -50 -15.333 -74 -46c-8 -10 -20 -8.66699 -36 4
c-7.33301 6.66699 -11 14.334 -11 23.001c0 7.33301 2.33301 14 7 20c32 40.667 73 61 123 61c38 0 69.5 -14.167 94.5 -42.5s37.5 -61.833 37.5 -100.5v-347zM221.001 632.998c0 13.333 -4.5 24.833 -13.5 34.5s-19.833 14.5 -32.5 14.5s-23.5 -4.83301 -32.5 -14.5
s-13.5 -21.167 -13.5 -34.5c0 -12.667 4.5 -23.834 13.5 -33.501s19.833 -14.5 32.5 -14.5s23.5 4.83301 32.5 14.5s13.5 20.834 13.5 33.501zM236.001 92.998l-0.000976562 159.999l-87 -29c-42.667 -14 -64 -43 -64 -87c0 -22.667 5.83301 -42.667 17.5 -60
s26.834 -26.666 45.501 -27.999c34 -2 63.333 12.667 88 44z" />
    <glyph glyph-name="ae" unicode="&#xe6;" horiz-adv-x="614" 
d="M579 220l-250.001 -0.00195312c2 -110 35.333 -165 100 -165c26.667 0 50.334 9.66699 71.001 29c10.667 10.667 23.667 9.66699 39 -3c10.667 -8.66699 16 -18 16 -28c0 -4 -1 -7.66699 -3 -11c-29.333 -33.333 -70.333 -50 -123 -50c-63.333 0 -109.333 23.667 -138 71
c-38.667 -47.333 -78.334 -71 -119.001 -71c-39.333 0 -72 14.167 -98 42.5s-39 62.5 -39 102.5c0 76.667 44 124.334 132 143.001l93 19v52c0 20 -6.33301 37.667 -19 53s-29 23.333 -49 24c-25.333 0 -50 -15.333 -74 -46c-8 -10 -20 -8.66699 -36 4
c-7.33301 6.66699 -11 14.334 -11 23.001c0 7.33301 2.33301 14 7 20c32 40.667 73 61 123 61c42.667 0 77 -17.667 103 -53c28.667 36 69.334 54 122.001 54c102 0 153 -78.333 153 -235v-36zM506.999 280.998c-1.33301 96.667 -28.333 145 -81 145
c-60 0 -92.333 -50.333 -97 -151zM271.999 102.998c-12.667 37.333 -18.667 82.999 -18 136.999v10l-81 -26c-42.667 -14 -64 -43 -64 -87c0 -22.667 5.83301 -42.667 17.5 -60s26.834 -26.666 45.501 -27.999c35.333 -2 68.666 16 99.999 54z" />
    <glyph glyph-name="ccedilla" unicode="&#xe7;" horiz-adv-x="362" 
d="M334 43c-25.333 -28 -58.332 -44.668 -98.999 -50.001l25 -66l-61 -126h-62l75 130l-23 61c-102.667 9.33301 -154 92 -154 248c0 165.333 58.333 248 175 248c51.333 0 92.666 -17 123.999 -51c2 -3.33301 3 -7 3 -11c0 -10 -5.33301 -19.333 -16 -28
c-16 -13.333 -29.333 -14.333 -40 -3c-18.667 19.333 -42.334 29 -71.001 29c-67.333 0 -101 -61.333 -101 -184c0 -123.333 33.667 -185 101 -185c28.667 0 52.334 10 71.001 30c10.667 10.667 24 9.33398 40 -3.99902c10.667 -8.66699 16 -18 16 -28
c0 -4 -1 -7.33301 -3 -10z" />
    <glyph glyph-name="egrave" unicode="&#xe8;" horiz-adv-x="396" 
d="M263 535h-60l-78 163h72zM361 220h-251.001c2 -110 35.333 -165 100 -165c26.667 0 50.334 9.66699 71.001 29c10.667 10.667 23.667 9.66699 39 -3c10.667 -8.66699 16 -18 16 -28c0 -4 -1 -7.66699 -3 -11c-29.333 -33.333 -70.333 -50 -123 -50
c-116.667 0 -175 82.667 -175 248c0 167.333 57.333 251 172 251c102 0 153 -78.333 153 -235v-4v-12c0.666992 -17.333 1 -24 1 -20zM287.999 281c-1.33301 96.667 -28.333 145 -81 145c-60 0 -92.333 -50.333 -97 -151z" />
    <glyph glyph-name="eacute" unicode="&#xe9;" horiz-adv-x="396" 
d="M277 698l-78 -163h-60l66 163h72zM361 220h-251.001c2 -110 35.333 -165 100 -165c26.667 0 50.334 9.66699 71.001 29c10.667 10.667 23.667 9.66699 39 -3c10.667 -8.66699 16 -18 16 -28c0 -4 -1 -7.66699 -3 -11c-29.333 -33.333 -70.333 -50 -123 -50
c-116.667 0 -175 82.667 -175 248c0 167.333 57.333 251 172 251c102 0 153 -78.333 153 -235v-4v-12c0.666992 -17.333 1 -24 1 -20zM287.999 281c-1.33301 96.667 -28.333 145 -81 145c-60 0 -92.333 -50.333 -97 -151z" />
    <glyph glyph-name="ecircumflex" unicode="&#xea;" horiz-adv-x="396" 
d="M325 547h-64l-55 95l-55 -95h-64l81 126h76zM361 220h-251.001c2 -110 35.333 -165 100 -165c26.667 0 50.334 9.66699 71.001 29c10.667 10.667 23.667 9.66699 39 -3c10.667 -8.66699 16 -18 16 -28c0 -4 -1 -7.66699 -3 -11c-29.333 -33.333 -70.333 -50 -123 -50
c-116.667 0 -175 82.667 -175 248c0 167.333 57.333 251 172 251c102 0 153 -78.333 153 -235v-4v-12c0.666992 -17.333 1 -24 1 -20zM287.999 281c-1.33301 96.667 -28.333 145 -81 145c-60 0 -92.333 -50.333 -97 -151z" />
    <glyph glyph-name="edieresis" unicode="&#xeb;" horiz-adv-x="396" 
d="M339 610c0 -14.667 -5.16699 -27.167 -15.5 -37.5s-22.833 -15.5 -37.5 -15.5s-27.167 5.16699 -37.5 15.5s-15.5 22.833 -15.5 37.5s5.16699 27.167 15.5 37.5s22.833 15.5 37.5 15.5s27.167 -5.16699 37.5 -15.5s15.5 -22.833 15.5 -37.5zM176 610
c0 -14.667 -5.16699 -27.167 -15.5 -37.5s-22.833 -15.5 -37.5 -15.5s-27.167 5.16699 -37.5 15.5s-15.5 22.833 -15.5 37.5s5.16699 27.167 15.5 37.5s22.833 15.5 37.5 15.5s27.167 -5.16699 37.5 -15.5s15.5 -22.833 15.5 -37.5zM361 220h-251.001
c2 -110 35.333 -165 100 -165c26.667 0 50.334 9.66699 71.001 29c10.667 10.667 23.667 9.66699 39 -3c10.667 -8.66699 16 -18 16 -28c0 -4 -1 -7.66699 -3 -11c-29.333 -33.333 -70.333 -50 -123 -50c-116.667 0 -175 82.667 -175 248c0 167.333 57.333 251 172 251
c102 0 153 -78.333 153 -235v-4v-12c0.666992 -17.333 1 -24 1 -20zM287.999 281c-1.33301 96.667 -28.333 145 -81 145c-60 0 -92.333 -50.333 -97 -151z" />
    <glyph glyph-name="igrave" unicode="&#xec;" horiz-adv-x="212" 
d="M159 535h-60l-78 163h72zM157 0h-75v421h-41c-14 0 -21 10.333 -21 31c0 20 7 30 21 30h116v-482z" />
    <glyph glyph-name="iacute" unicode="&#xed;" horiz-adv-x="214" 
d="M194 698l-78 -163h-60l66 163h72zM157 0h-75v421h-41c-14 0 -21 10.333 -21 31c0 20 7 30 21 30h116v-482z" />
    <glyph glyph-name="icircumflex" unicode="&#xee;" horiz-adv-x="214" 
d="M236 547h-64l-55 95l-55 -95h-64l81 126h76zM159 0h-75v421h-41c-14 0 -21 10.333 -21 31c0 20 7 30 21 30h116v-482z" />
    <glyph glyph-name="idieresis" unicode="&#xef;" horiz-adv-x="214" 
d="M246 610c0 -14.667 -5.16699 -27.167 -15.5 -37.5s-22.833 -15.5 -37.5 -15.5s-27.167 5.16699 -37.5 15.5s-15.5 22.833 -15.5 37.5s5.16699 27.167 15.5 37.5s22.833 15.5 37.5 15.5s27.167 -5.16699 37.5 -15.5s15.5 -22.833 15.5 -37.5zM82 610
c0 -14.667 -5.16699 -27.167 -15.5 -37.5s-22.5 -15.5 -36.5 -15.5c-14.667 0 -27.167 5.16699 -37.5 15.5s-15.5 22.833 -15.5 37.5s5.16699 27.167 15.5 37.5s22.833 15.5 37.5 15.5c14 0 26.167 -5.16699 36.5 -15.5s15.5 -22.833 15.5 -37.5zM162 0h-76v421h-40
c-14 0 -21 10.333 -21 31c0 20 7 30 21 30h116v-482z" />
    <glyph glyph-name="eth" unicode="&#xf0;" horiz-adv-x="373" 
d="M348 517l-52 0.000976562c18.667 -80.667 28 -184.667 28 -312c0 -50.667 -12 -96.667 -36 -138c-28 -48.667 -65.667 -73 -113 -73s-85.333 24.333 -114 73c-24 40.667 -36 86.667 -36 138s12 97.666 36 138.999c28.667 48 66.667 72 114 72c28 0 56 -12.667 84 -38
c-5.33301 51.333 -13.333 97.666 -24 138.999h-74v61h55c-16 38 -33.667 57.667 -53 59l9 59c46 -5.33301 81.667 -44.666 107 -117.999h69v-61zM267 205.001c0 37.333 -8.33301 71 -25 101c-18 34 -40.333 51 -67 51c-27.333 0 -50 -17 -68 -51
c-16 -30 -24 -63.667 -24 -101s8 -71 24 -101c18 -33.333 40.667 -50 68 -50c26.667 0 49 16.667 67 50c16.667 30 25 63.667 25 101z" />
    <glyph glyph-name="ntilde" unicode="&#xf1;" horiz-adv-x="436" 
d="M356 599c-20 -33.333 -43.334 -49.332 -70.001 -47.999c-16.667 0.666992 -36.334 7.33398 -59.001 20.001c-27.333 15.333 -47.333 22.666 -60 21.999c-10 -0.666992 -21.333 -11 -34 -31l-30 35c22.667 33.333 45.667 49.666 69 48.999
c16.667 -0.666992 36.334 -7.33398 59.001 -20.001c31.333 -17.333 53 -24.666 65 -21.999c8.66699 2.66699 18.334 12.667 29.001 30zM380.999 0.000976562h-73.999v270c0 54.667 -4.33301 93 -13 115c-13.333 32.667 -30.333 47.667 -51 45
c-14.667 -2.66699 -49.667 -27 -105 -73v-357h-73v482l53 -72c29.333 24.667 50.666 41.334 63.999 50.001c30 20.667 54.667 31 74 31c44 -0.666992 78.667 -27.334 104 -80.001c14 -28.667 21 -75.667 21 -141v-270z" />
    <glyph glyph-name="ograve" unicode="&#xf2;" horiz-adv-x="403" 
d="M259 535h-60l-78 163h72zM368 241c0 -165.333 -55.333 -248.333 -166 -249c-111.333 -0.666992 -167 83 -167 251c0 164.667 55.667 247 167 247c110.667 0 166 -83 166 -249zM295 243c0 123.333 -31 185 -93 185s-93 -62 -93 -186c0 -125.333 31 -188 93 -188
s93 63 93 189z" />
    <glyph glyph-name="oacute" unicode="&#xf3;" horiz-adv-x="403" 
d="M275 698l-78 -163h-60l66 163h72zM368 241c0 -165.333 -55.333 -248.333 -166 -249c-111.333 -0.666992 -167 83 -167 251c0 164.667 55.667 247 167 247c110.667 0 166 -83 166 -249zM295 243c0 123.333 -31 185 -93 185s-93 -62 -93 -186c0 -125.333 31 -188 93 -188
s93 63 93 189z" />
    <glyph glyph-name="ocircumflex" unicode="&#xf4;" horiz-adv-x="403" 
d="M320 547h-64l-55 95l-55 -95h-64l81 126h76zM368 241c0 -165.333 -55.333 -248.333 -166 -249c-111.333 -0.666992 -167 83 -167 251c0 164.667 55.667 247 167 247c110.667 0 166 -83 166 -249zM295 243c0 123.333 -31 185 -93 185s-93 -62 -93 -186
c0 -125.333 31 -188 93 -188s93 63 93 189z" />
    <glyph glyph-name="otilde" unicode="&#xf5;" horiz-adv-x="403" 
d="M336 599c-20 -33.333 -43.334 -49.332 -70.001 -47.999c-16.667 0.666992 -36.334 7.33398 -59.001 20.001c-27.333 15.333 -47.333 22.666 -60 21.999c-10 -0.666992 -21.333 -11 -34 -31l-30 35c22.667 33.333 45.667 49.666 69 48.999
c16.667 -0.666992 36.334 -7.33398 59.001 -20.001c31.333 -17.333 53 -24.666 65 -21.999c8.66699 2.66699 18.334 12.667 29.001 30zM367.999 241.001c0 -165.333 -55.333 -248.333 -166 -249c-111.333 -0.666992 -167 83 -167 251c0 164.667 55.667 247 167 247
c110.667 0 166 -83 166 -249zM294.999 243.001c0 123.333 -31 185 -93 185s-93 -62 -93 -186c0 -125.333 31 -188 93 -188s93 63 93 189z" />
    <glyph glyph-name="odieresis" unicode="&#xf6;" horiz-adv-x="403" 
d="M337 610c0 -14.667 -5.16699 -27.167 -15.5 -37.5s-22.833 -15.5 -37.5 -15.5s-27.167 5.16699 -37.5 15.5s-15.5 22.833 -15.5 37.5s5.16699 27.167 15.5 37.5s22.833 15.5 37.5 15.5s27.167 -5.16699 37.5 -15.5s15.5 -22.833 15.5 -37.5zM174 610
c0 -14.667 -5.16699 -27.167 -15.5 -37.5s-22.833 -15.5 -37.5 -15.5s-27.167 5.16699 -37.5 15.5s-15.5 22.833 -15.5 37.5s5.16699 27.167 15.5 37.5s22.833 15.5 37.5 15.5s27.167 -5.16699 37.5 -15.5s15.5 -22.833 15.5 -37.5zM368 241
c0 -165.333 -55.333 -248.333 -166 -249c-111.333 -0.666992 -167 83 -167 251c0 164.667 55.667 247 167 247c110.667 0 166 -83 166 -249zM295 243c0 123.333 -31 185 -93 185s-93 -62 -93 -186c0 -125.333 31 -188 93 -188s93 63 93 189z" />
    <glyph glyph-name="divide" unicode="&#xf7;" horiz-adv-x="458" 
d="M286 498c0 -16 -5.5 -29.5 -16.5 -40.5s-24.5 -16.5 -40.5 -16.5c-15.333 0 -28.5 5.5 -39.5 16.5s-16.5 24.5 -16.5 40.5c0 15.333 5.5 28.666 16.5 39.999s24.167 17 39.5 17c16 0 29.5 -5.66699 40.5 -17s16.5 -24.666 16.5 -39.999zM398 313h-338v69h338v-69z
M286 198c0 -15.333 -5.5 -28.666 -16.5 -39.999s-24.5 -17 -40.5 -17c-15.333 0 -28.5 5.66699 -39.5 17s-16.5 24.666 -16.5 39.999c0 16 5.5 29.5 16.5 40.5s24.167 16.5 39.5 16.5c16 0 29.5 -5.5 40.5 -16.5s16.5 -24.5 16.5 -40.5z" />
    <glyph glyph-name="oslash" unicode="&#xf8;" horiz-adv-x="410" 
d="M375 245c0 -168 -56.667 -252.333 -170 -253c-14.667 0 -28.667 1.66699 -42 5l-10 -28h-60l18 53c-50.667 37.333 -76 111.666 -76 222.999c0 166 56.667 249 170 249c20.667 0 40.667 -4 60 -12l9 30h61l-21 -62c40.667 -39.333 61 -107.666 61 -204.999zM297 245
c0 49.333 -4.66699 87 -14 113l-99 -296c6.66699 -2.66699 13.667 -4 21 -4c61.333 0.666992 92 63 92 187zM242 415c-11.333 7.33301 -23.667 10.999 -37 10.999c-61.333 0.666992 -92 -59.666 -92 -180.999c0 -66 8.33301 -113.667 25 -143z" />
    <glyph glyph-name="ugrave" unicode="&#xf9;" horiz-adv-x="408" 
d="M272 535h-60l-78 163h72zM367 0l-54 73c-64 -54.667 -109.667 -81.667 -137 -81c-80.667 0 -121 73.333 -121 220v270h73v-270c0 -112 20 -165 60 -159c15.333 2 50.333 26 105 72v357h74v-482z" />
    <glyph glyph-name="uacute" unicode="&#xfa;" horiz-adv-x="408" 
d="M282 698l-78 -163h-60l66 163h72zM367 0l-54 73c-64 -54.667 -109.667 -81.667 -137 -81c-80.667 0 -121 73.333 -121 220v270h73v-270c0 -112 20 -165 60 -159c15.333 2 50.333 26 105 72v357h74v-482z" />
    <glyph glyph-name="ucircumflex" unicode="&#xfb;" horiz-adv-x="408" 
d="M338 547h-64l-55 95l-55 -95h-64l81 126h76zM367 0l-54 73c-64 -54.667 -109.667 -81.667 -137 -81c-80.667 0 -121 73.333 -121 220v270h73v-270c0 -112 20 -165 60 -159c15.333 2 50.333 26 105 72v357h74v-482z" />
    <glyph glyph-name="udieresis" unicode="&#xfc;" horiz-adv-x="408" 
d="M345 610c0 -14.667 -5.16699 -27.167 -15.5 -37.5s-22.833 -15.5 -37.5 -15.5s-27.167 5.16699 -37.5 15.5s-15.5 22.833 -15.5 37.5s5.16699 27.167 15.5 37.5s22.833 15.5 37.5 15.5s27.167 -5.16699 37.5 -15.5s15.5 -22.833 15.5 -37.5zM182 610
c0 -14.667 -5.16699 -27.167 -15.5 -37.5s-22.833 -15.5 -37.5 -15.5s-27.167 5.16699 -37.5 15.5s-15.5 22.833 -15.5 37.5s5.16699 27.167 15.5 37.5s22.833 15.5 37.5 15.5s27.167 -5.16699 37.5 -15.5s15.5 -22.833 15.5 -37.5zM367 0l-54 73
c-64 -54.667 -109.667 -81.667 -137 -81c-80.667 0 -121 73.333 -121 220v270h73v-270c0 -112 20 -165 60 -159c15.333 2 50.333 26 105 72v357h74v-482z" />
    <glyph glyph-name="yacute" unicode="&#xfd;" horiz-adv-x="393" 
d="M268 698l-78 -163h-60l66 163h72zM378 482l-133.999 -475.999c-58 -62 -100 -108 -126 -138c-6.66699 -7.33301 -5 -12.666 5 -15.999c22 -7.33301 72.667 -11 152 -11c13.333 0 19.666 -10 18.999 -30c0 -19.333 -6.33301 -29 -19 -29c-138 0 -213.333 18.333 -226 55
c-1.33301 5.33301 -2 10.666 -2 15.999c0 11.333 4.33301 22.666 13 33.999c18 22.667 63 67.667 135 135l-54 18l-126 442h76l73 -279l33 -142l33 142l73 279h75z" />
    <glyph glyph-name="thorn" unicode="&#xfe;" horiz-adv-x="480" 
d="M430 193c0 -128.667 -77 -193 -231 -193h-69v-152h-80v692h80v-154h71c152.667 0 229 -64.333 229 -193zM351 193c0 46.667 -14.333 79.666 -43 98.999c-24 16 -60.333 24 -109 24h-69v-245h69c50 0 86.667 8 110 24c28 18.667 42 51.334 42 98.001z" />
    <glyph glyph-name="ydieresis" unicode="&#xff;" horiz-adv-x="393" 
d="M332 610c0 -14.667 -5.16699 -27.167 -15.5 -37.5s-22.833 -15.5 -37.5 -15.5s-27.167 5.16699 -37.5 15.5s-15.5 22.833 -15.5 37.5s5.16699 27.167 15.5 37.5s22.833 15.5 37.5 15.5s27.167 -5.16699 37.5 -15.5s15.5 -22.833 15.5 -37.5zM169 610
c0 -14.667 -5.16699 -27.167 -15.5 -37.5s-22.833 -15.5 -37.5 -15.5s-27.167 5.16699 -37.5 15.5s-15.5 22.833 -15.5 37.5s5.16699 27.167 15.5 37.5s22.833 15.5 37.5 15.5s27.167 -5.16699 37.5 -15.5s15.5 -22.833 15.5 -37.5zM378 482l-133.999 -475.999
c-58 -62 -100 -108 -126 -138c-6.66699 -7.33301 -5 -12.666 5 -15.999c22 -7.33301 72.667 -11 152 -11c13.333 0 19.666 -10 18.999 -30c0 -19.333 -6.33301 -29 -19 -29c-138 0 -213.333 18.333 -226 55c-1.33301 5.33301 -2 10.666 -2 15.999
c0 11.333 4.33301 22.666 13 33.999c18 22.667 63 67.667 135 135l-54 18l-126 442h76l73 -279l33 -142l33 142l73 279h75z" />
    <glyph glyph-name="dotlessi" unicode="&#x131;" horiz-adv-x="217" 
d="M162 0h-75v421h-41c-14 0 -21 10.333 -21 31c0 20 7 30 21 30h116v-482z" />
    <glyph glyph-name="Lslash" unicode="&#x141;" horiz-adv-x="443" 
d="M400 0h-318v327l-52 -11v61l52 11v304h80v-287l55 12v-61l-55 -12v-269h238v-75z" />
    <glyph glyph-name="lslash" unicode="&#x142;" horiz-adv-x="253" 
d="M218 354l-51 -11v-343h-75v327l-52 -11v61l52 11v304c0 16.667 12.667 25 38 25c24.667 0 37 -8.33301 37 -25v-288l51 11v-61z" />
    <glyph glyph-name="OE" unicode="&#x152;" horiz-adv-x="789" 
d="M739 78l0.00195312 -78h-346v45c-35.333 -35.333 -79 -53 -131 -53c-84.667 0 -145.334 40.667 -182.001 122c-26.667 58.667 -40 136 -40 232c0 235.333 74 353 222 353c52 0 95.667 -17.333 131 -52v45h346v-78h-263v-110c3.33301 -16 6 -53.667 8 -113l204 1
c14.667 0 22 -11.333 22 -34c0 -22 -7.33301 -33 -22 -33h-204c-0.666992 -40 -3.33398 -70.333 -8.00098 -91v-156h263zM401.002 346c0 69.333 -7.33301 127.001 -22 173.001c-22.667 72 -61.667 108 -117 108c-54.667 0 -93.667 -36 -117 -108
c-14.667 -46.667 -22 -104.334 -22 -173.001c0 -69.333 7.33301 -127 22 -173c23.333 -72 62.333 -108 117 -108s93.667 36 117 108c14.667 46 22 103.667 22 173z" />
    <glyph glyph-name="oe" unicode="&#x153;" horiz-adv-x="655" 
d="M620 220h-250.999c2 -110 35.667 -165 101 -165c26.667 0 50 9.66699 70 29c10.667 10.667 24 9.66699 40 -3c10.667 -8.66699 16 -18 16 -28c0 -4 -1.33301 -7.66699 -4 -11c-28.667 -33.333 -69.334 -50 -122.001 -50c-64 0 -110.333 24 -139 72
c-28 -47.333 -71 -71.333 -129 -72c-111.333 -0.666992 -167 83 -167 251c0 164.667 55.667 247 167 247c58 0 101.333 -24 130 -72c28.667 48.667 73.667 73 135 73c102 0 153 -78.333 153 -235v-36zM548.001 281c-2 96.667 -29.333 145 -82 145
c-59.333 0 -91.333 -50.333 -96 -151zM295.001 243c0 123.333 -31 185 -93 185s-93 -62 -93 -186c0 -125.333 31 -188 93 -188s93 63 93 189z" />
    <glyph glyph-name="Scaron" unicode="&#x160;" horiz-adv-x="445" 
d="M346 864l-81 -126h-76l-81 126h64l55 -95l55 95h64zM410 176c-1.33301 -58 -22.5 -103.667 -63.5 -137s-90.5 -48.666 -148.5 -45.999c-56 2.66699 -109.333 18.667 -160 48c-12 7.33301 -11.667 21.333 1 42c8.66699 14 18.334 21 29.001 21c2.66699 0 5 -0.666992 7 -2
c41.333 -23.333 82.666 -36 123.999 -38c34.667 -2 64.167 7 88.5 27s36.5 46.333 36.5 79c0 12 -1.66699 24.333 -5 37c-12 40 -40 72.667 -84 98c-72.667 42.667 -116 70.334 -130 83.001c-38.667 35.333 -58 82 -58 140c0 57.333 19 101.666 57 132.999
c35.333 29.333 82 42.666 140 39.999c55.333 -2.66699 105 -17 149 -43l-37 -63c-29.333 20.667 -68.666 32 -117.999 34c-74.667 3.33301 -112.667 -30 -114 -100c-0.666992 -36.667 14 -67.667 44 -93c10.667 -8.66699 41 -26.667 91 -54
c103.333 -56 153.666 -124.667 150.999 -206z" />
    <glyph glyph-name="scaron" unicode="&#x161;" horiz-adv-x="352" 
d="M300 673l-81 -126h-75l-82 126h65l54 -94l55 94h64zM322 125c-2 -42 -19.668 -76 -53.001 -102c-30.667 -24 -67.334 -35 -110.001 -33c-36 1.33301 -73 11.666 -111 30.999c-8.66699 4.66699 -13 13.667 -13 27c0 10 3.66699 19.333 11 28s15 10.667 23 6
c30 -15.333 60 -23.666 90 -24.999c24 -0.666992 45.167 4.83301 63.5 16.5s28.166 29.167 29.499 52.5c0.666992 24.667 -18.666 48.334 -57.999 71.001l-71 39c-27.333 16 -47.333 32.667 -60 50c-17.333 22 -25.333 47.667 -24 77c2 44 17 77 45 99
c26 20 60.333 29.333 103 28c40.667 -1.33301 79.334 -12 116.001 -32l-33 -56c-29.333 13.333 -57.666 20.666 -84.999 21.999c-50 2 -75.333 -18.667 -76 -62c0 -18 8.33301 -34 25 -48c8.66699 -7.33301 26 -18 52 -32c48.667 -26 80 -45.333 94 -58
c29.333 -26 43.333 -59 42 -99z" />
    <glyph glyph-name="Ydieresis" unicode="&#x178;" horiz-adv-x="421" 
d="M345 803c0 -14.667 -5.16699 -27.167 -15.5 -37.5s-22.833 -15.5 -37.5 -15.5s-27.167 5.16699 -37.5 15.5s-15.5 22.833 -15.5 37.5s5.16699 27.167 15.5 37.5s22.833 15.5 37.5 15.5s27.167 -5.16699 37.5 -15.5s15.5 -22.833 15.5 -37.5zM182 803
c0 -14.667 -5.16699 -27.167 -15.5 -37.5s-22.833 -15.5 -37.5 -15.5s-27.167 5.16699 -37.5 15.5s-15.5 22.833 -15.5 37.5s5.16699 27.167 15.5 37.5s22.833 15.5 37.5 15.5s27.167 -5.16699 37.5 -15.5s15.5 -22.833 15.5 -37.5zM411 692l-161 -458v-234h-79v234
l-161 458h78l112 -341l11 -77l10 77l112 341h78z" />
    <glyph glyph-name="Zcaron" unicode="&#x17d;" horiz-adv-x="454" 
d="M362 864l-81 -126h-76l-81 126h64l55 -95l55 95h64zM424 692l-290 -617h260v-75h-374l292 617h-245v75h357z" />
    <glyph glyph-name="zcaron" unicode="&#x17e;" horiz-adv-x="370" 
d="M312 673l-81 -126h-76l-81 126h64l55 -94l55 94h64zM335 482l-207 -419h201v-63h-304l205 419h-171v63h276z" />
    <glyph glyph-name="florin" unicode="&#x192;" horiz-adv-x="360" 
d="M340 707l-47 -43.002c-10 5.33301 -20 8 -30 8c-36.667 0 -63.667 -23.667 -81 -71c-6.66699 -20 -14.334 -59.667 -23.001 -119c-0.666992 -4 -1 -7 -1 -9h101l-8 -47h-100l-62 -426c-8 -53.333 -21.333 -95.666 -40 -126.999c-28 -47.333 -69 -71 -123 -71
c-30.667 0 -54 7.33301 -70 22l47 42c10 -4.66699 20 -7 30 -7c50.667 0 83 47.667 97 143l62 424h-49l8 47h48l1 8c6.66699 45.333 11.667 76 15 92c8 34.667 19 63.334 33 86.001c28.667 46.667 69.334 70 122.001 70c30 0 53.333 -7.33301 70 -22z" />
    <glyph glyph-name="circumflex" unicode="&#x2c6;" horiz-adv-x="478" 
d="M358 547h-64l-55 95l-55 -95h-64l81 126h76z" />
    <glyph glyph-name="caron" unicode="&#x2c7;" horiz-adv-x="478" 
d="M358 673l-81 -126h-76l-81 126h64l55 -94l55 94h64z" />
    <glyph glyph-name="breve" unicode="&#x2d8;" horiz-adv-x="481" 
d="M377 706c-11.333 -39.333 -29.3311 -71.333 -53.998 -96s-52.334 -37 -83.001 -37c-30 0 -57.5 12.333 -82.5 37s-42.833 56.667 -53.5 96h49c20.667 -54 49.667 -81 87 -81s66.666 27 87.999 81h49z" />
    <glyph glyph-name="dotaccent" unicode="&#x2d9;" horiz-adv-x="468" 
d="M287 610c0 -14.667 -5.16699 -27.167 -15.5 -37.5s-22.833 -15.5 -37.5 -15.5s-27.167 5.16699 -37.5 15.5s-15.5 22.833 -15.5 37.5s5.16699 27.167 15.5 37.5s22.833 15.5 37.5 15.5s27.167 -5.16699 37.5 -15.5s15.5 -22.833 15.5 -37.5z" />
    <glyph glyph-name="ring" unicode="&#x2da;" horiz-adv-x="224" 
d="M199 633c0 -24 -8.33301 -44.833 -25 -62.5s-37.334 -26.5 -62.001 -26.5s-45.334 8.83301 -62.001 26.5s-25 38.5 -25 62.5c0 24.667 8.33301 46 25 64s37.334 27 62.001 27s45.334 -9 62.001 -27s25 -39.333 25 -64zM158 633c0 13.333 -4.5 24.833 -13.5 34.5
s-19.833 14.5 -32.5 14.5s-23.5 -4.83301 -32.5 -14.5s-13.5 -21.167 -13.5 -34.5c0 -12.667 4.5 -23.834 13.5 -33.501s19.833 -14.5 32.5 -14.5s23.5 4.83301 32.5 14.5s13.5 20.834 13.5 33.501z" />
    <glyph glyph-name="ogonek" unicode="&#x2db;" horiz-adv-x="472" 
d="M187 -197h-66l-76 204h55z" />
    <glyph glyph-name="tilde" unicode="&#x2dc;" horiz-adv-x="303" 
d="M278 599c-20 -33.333 -43.332 -49.332 -69.999 -47.999c-16.667 0.666992 -36.334 7.33398 -59.001 20.001c-27.333 15.333 -47.333 22.666 -60 21.999c-10 -0.666992 -21.333 -11 -34 -31l-30 35c22.667 33.333 46 49.666 70 48.999
c16 -0.666992 35.667 -7.33398 59 -20.001c30.667 -17.333 52 -24.666 64 -21.999c8.66699 2.66699 18.667 12.667 30 30z" />
    <glyph glyph-name="hungarumlaut" unicode="&#x2dd;" horiz-adv-x="492" 
d="M375 694l-76.001 -135c-4 -6.66699 -9 -10 -15 -10h-43c-6 0 -7.66699 3.33301 -5 10l57 135c2.66699 6.66699 7.33398 10 14.001 10h62c7.33301 0 9.33301 -3.33301 6 -10zM255.999 694l-76.001 -135c-4 -6.66699 -9 -10 -15 -10h-43c-6 0 -7.66699 3.33301 -5 10
l57 135c2.66699 6.66699 7.33398 10 14.001 10h62c7.33301 0 9.33301 -3.33301 6 -10z" />
    <glyph glyph-name="Delta" unicode="&#x394;" horiz-adv-x="427" 
d="M412 0h-397l198 697zM339 57l-126 462l-126 -462h252z" />
    <glyph glyph-name="Delta" unicode="&#x2206;" horiz-adv-x="427" 
d="M412 0h-397l198 697zM339 57l-126 462l-126 -462h252z" />
    <glyph glyph-name="Omega" unicode="&#x3a9;" horiz-adv-x="494" 
d="M424 348c0 -126.667 -19.999 -221.667 -59.999 -285h52l8 -63h-132v79c44.667 39.333 67 129 67 269c0 187.333 -34.333 281 -103 281h-18c-42 0 -71.333 -39.667 -88 -119c-10 -46.667 -15 -100.667 -15 -162c0 -140 22.333 -229.667 67 -269v-79h-132l8 63h52
c-40 63.333 -60 158.333 -60 285c0 86 9.33301 158 28 216c27.333 88 73.666 132 138.999 132h20c66 0 113 -45 141 -135c17.333 -57.333 26 -128.333 26 -213z" />
    <glyph glyph-name="Omega" unicode="&#x2126;" horiz-adv-x="494" 
d="M424 348c0 -126.667 -19.999 -221.667 -59.999 -285h52l8 -63h-132v79c44.667 39.333 67 129 67 269c0 187.333 -34.333 281 -103 281h-18c-42 0 -71.333 -39.667 -88 -119c-10 -46.667 -15 -100.667 -15 -162c0 -140 22.333 -229.667 67 -269v-79h-132l8 63h52
c-40 63.333 -60 158.333 -60 285c0 86 9.33301 158 28 216c27.333 88 73.666 132 138.999 132h20c66 0 113 -45 141 -135c17.333 -57.333 26 -128.333 26 -213z" />
    <glyph glyph-name="pi" unicode="&#x3c0;" horiz-adv-x="496" 
d="M406 0h-16c-54 0 -81 38.667 -81 116v297h-150v-413h-59v474l268 1v-359c0 -36.667 7.33301 -55 22 -55h16v-61z" />
    <glyph glyph-name="endash" unicode="&#x2013;" horiz-adv-x="474" 
d="M414 236h-354v72h354v-72z" />
    <glyph glyph-name="emdash" unicode="&#x2014;" horiz-adv-x="624" 
d="M564 236h-504v72h504v-72z" />
    <glyph glyph-name="quoteleft" unicode="&#x2018;" horiz-adv-x="210" 
d="M150 718l-24 -217l-76 12l45 214z" />
    <glyph glyph-name="quoteright" unicode="&#x2019;" horiz-adv-x="210" 
d="M160 715l-45 -214l-55 9l24 217z" />
    <glyph glyph-name="quotesinglbase" unicode="&#x201a;" horiz-adv-x="210" 
d="M160 98l-45 -214l-55 9l24 217z" />
    <glyph glyph-name="quotedblleft" unicode="&#x201c;" horiz-adv-x="336" 
d="M276 718l-24 -217l-75 12l45 214zM150 718l-24 -217l-76 12l45 214z" />
    <glyph glyph-name="quotedblright" unicode="&#x201d;" horiz-adv-x="336" 
d="M286 715l-45 -214l-54 9l24 217zM160 715l-45 -214l-55 9l24 217z" />
    <glyph glyph-name="quotedblbase" unicode="&#x201e;" horiz-adv-x="336" 
d="M286 98l-45 -214l-54 9l24 217zM160 98l-45 -214l-55 9l24 217z" />
    <glyph glyph-name="dagger" unicode="&#x2020;" horiz-adv-x="454" 
d="M359 465l-111 6l6 -404h-54l6 404l-111 -6v55l111 -6l-6 188h54l-6 -188l111 6v-55z" />
    <glyph glyph-name="daggerdbl" unicode="&#x2021;" horiz-adv-x="454" 
d="M359 227l-111 6l6 -188h-54l6 188l-111 -6v54l110 -5l-5 97l5 98l-110 -6v55l111 -6l-6 188h54l-6 -188l111 6v-55l-111 6l6 -98l-6 -97l111 5v-54z" />
    <glyph glyph-name="bullet" unicode="&#x2022;" horiz-adv-x="494" 
d="M394 338c0 -40.667 -14.333 -75.334 -43 -104.001s-63.334 -43 -104.001 -43s-75.334 14.333 -104.001 43s-43 63.334 -43 104.001s14.333 75.334 43 104.001s63.334 43 104.001 43s75.334 -14.333 104.001 -43s43 -63.334 43 -104.001z" />
    <glyph glyph-name="ellipsis" unicode="&#x2026;" horiz-adv-x="678" 
d="M608 50c0 -17.333 -6 -32 -18 -44s-26.333 -18 -43 -18c-17.333 0 -32 6 -44 18s-18 26.667 -18 44c0 16.667 6 31 18 43s26.667 18 44 18c16.667 0 31 -6 43 -18s18 -26.333 18 -43zM400 50c0 -17.333 -5.83301 -32 -17.5 -44s-26.167 -18 -43.5 -18
c-16.667 0 -31.167 6 -43.5 18s-18.5 26.667 -18.5 44c0 16.667 6.16699 31 18.5 43s26.833 18 43.5 18c17.333 0 31.833 -6 43.5 -18s17.5 -26.333 17.5 -43zM193 50c0 -17.333 -6 -32 -18 -44s-26.333 -18 -43 -18s-31.167 6 -43.5 18s-18.5 26.667 -18.5 44
c0 16.667 6.16699 31 18.5 43s26.833 18 43.5 18s31 -6 43 -18s18 -26.333 18 -43z" />
    <glyph glyph-name="perthousand" unicode="&#x2030;" horiz-adv-x="859" 
d="M809 191c0 -135.333 -40.668 -203.002 -122.001 -203.002c-40.667 0 -71.334 19.333 -92.001 58c-21.333 -38.667 -52.666 -58 -93.999 -58c-45.333 0 -78.333 24 -99 72c-14.667 34.667 -22 78.334 -22 131.001s7.33301 96.334 22 131.001c20 48 53 72 99 72
c42 0 73.333 -19.333 94 -58c20.667 38.667 51.334 58 92.001 58c81.333 0 122 -67.667 122 -203zM481.999 676.998l-235 -693h-54l235 693h54zM292.999 468.998c0 -134.667 -40.667 -202 -122 -202c-45.333 0 -78.333 24 -99 72c-14.667 34 -22 77.333 -22 130
c0 53.333 7.33301 97 22 131c20 48 53 72 99 72c81.333 0 122 -67.667 122 -203zM750.999 190.998c0 104.667 -21.333 157 -64 157c-42 0 -63 -52.333 -63 -157s21 -157 63 -157c42.667 0 64 52.333 64 157zM565.999 190.998c0 104.667 -21.667 157 -65 157
c-42 0 -63 -52.333 -63 -157s21 -157 63 -157c43.333 0 65 52.333 65 157zM235.999 468.998c0 104.667 -21.667 157 -65 157c-42 0 -63 -52.333 -63 -157c0 -104 21 -156 63 -156c43.333 0 65 52 65 156z" />
    <glyph glyph-name="guilsinglleft" unicode="&#x2039;" horiz-adv-x="254" 
d="M194 114l-134 173v93l134 173v-102l-98 -117l98 -117v-103z" />
    <glyph glyph-name="guilsinglright" unicode="&#x203a;" horiz-adv-x="254" 
d="M194 287l-134 -173v103l98 117l-98 117v102l134 -173v-93z" />
    <glyph glyph-name="fraction" unicode="&#x2044;" horiz-adv-x="354" 
d="M344 693l-296 -693h-38l292 693h42z" />
    <glyph glyph-name="trademark" unicode="&#x2122;" horiz-adv-x="723" 
d="M653 290h-46.999l-14 287l-7 -19l-81 -207h-25l-89 226l-14 -287h-47l21 402h40l97 -244c1.33301 -4 2.66602 -11 3.99902 -21c1.33301 4.66699 3 11.667 5 21l97 244h40zM291.001 646h-102v-356h-47v356h-102v46h251v-46z" />
    <glyph glyph-name="partialdiff" unicode="&#x2202;" horiz-adv-x="463" 
d="M370 205c0 -50.667 -11.999 -96.667 -35.999 -138c-28 -48.667 -65.667 -73 -113 -73s-85.333 24.333 -114 73c-24 40.667 -36 86.667 -36 138s12 97.666 36 138.999c28.667 48 66.667 72 114 72c28 0 56 -12.667 84 -38c-6.66699 64 -17 118.667 -31 164
c-18.667 62 -40.334 93.667 -65.001 95l9 59c63.333 -8 107.333 -79.333 132 -214c13.333 -75.333 20 -167.666 20 -276.999zM313.001 205c0 37.333 -8.33301 71 -25 101c-18 34 -40.333 51 -67 51c-27.333 0 -50 -17 -68 -51c-16 -30 -24 -63.667 -24 -101s8 -71 24 -101
c18 -33.333 40.667 -50 68 -50c26.667 0 49 16.667 67 50c16.667 30 25 63.667 25 101z" />
    <glyph glyph-name="product" unicode="&#x220f;" horiz-adv-x="521" 
d="M421 -192h-52v887h-217v-887h-52v941h321v-941z" />
    <glyph glyph-name="summation" unicode="&#x2211;" horiz-adv-x="487" 
d="M427 -221h-363v75l177 383l-177 384v75h363v-62h-303l183 -397l-183 -397h303v-61z" />
    <glyph glyph-name="radical" unicode="&#x221a;" horiz-adv-x="439" 
d="M409 630h-62l-125 -630h-59l-133 459h61l96 -333l112 563h110v-59z" />
    <glyph glyph-name="infinity" unicode="&#x221e;" horiz-adv-x="627" 
d="M577 285c-1.33301 -37.333 -11.333 -69.333 -30 -96c-21.333 -30.667 -49.666 -46 -84.999 -46c-42.667 0 -92.334 30.667 -149.001 92c-56 -61.333 -105.667 -92 -149 -92v0v0c-35.333 0.666992 -63.666 16 -84.999 46c-18 26.667 -27.667 58.667 -29 96
s8.16699 70.5 28.5 99.5s48.833 43.833 85.5 44.5c43.333 0 93 -31 149 -93c56 62 105.667 93 149 93c37.333 -0.666992 66.666 -16 87.999 -46c19.333 -28 28.333 -60.667 27 -98zM516 285c0.666992 18 -3 34.667 -11 50c-10 18 -23.667 27 -41 27
c-29.333 0 -67.666 -25.333 -114.999 -76c47.333 -50.667 85.666 -76 114.999 -76c12 0 22.667 5.33301 32 16c12 14 18.667 33.667 20 59zM277 286c-46.667 50.667 -84.666 76 -113.999 76c-17.333 0 -31 -9 -41 -27c-8.66699 -15.333 -12.334 -32 -11.001 -50
c0.666992 -25.333 7 -45 19 -59c10 -10.667 21 -16 33 -16c29.333 0 67.333 25.333 114 76z" />
    <glyph glyph-name="integral" unicode="&#x222b;" horiz-adv-x="241" 
d="M207 635h-35.999c-14.667 0 -22 -18.667 -22 -56v-661c0 -28.667 -4 -51.667 -12 -69c-13.333 -30.667 -35.333 -46 -66 -46h-37v60h37c14 0 21 18.333 21 55v661c0 28.667 4 52 12 70c13.333 30.667 35.666 46 66.999 46h36v-60z" />
    <glyph glyph-name="approxequal" unicode="&#x2248;" horiz-adv-x="378" 
d="M338 416c-24.667 -32.667 -50.333 -49 -77 -49c-21.333 0 -46 7 -74 21c-32.667 16 -55.667 24 -69 24c-12.667 0 -25.667 -9.66699 -39 -29l-39 38c24.667 32.667 50.334 49 77.001 49c21.333 0 45.666 -7 72.999 -21c33.333 -16 56.666 -24 69.999 -24
c12.667 0 25.334 9.66699 38.001 29zM338.001 222c-24.667 -32.667 -50.333 -49 -77 -49c-21.333 0 -46 7 -74 21c-32.667 16 -55.667 24 -69 24c-12.667 0 -25.667 -9.66699 -39 -29l-39 38c24.667 32.667 50.334 49 77.001 49c21.333 0 45.666 -6.66699 72.999 -20
c33.333 -16.667 56.666 -25 69.999 -25c12.667 0 25.334 9.66699 38.001 29z" />
    <glyph glyph-name="approxequal" unicode="&#x22f2;" horiz-adv-x="378" 
d="M338 416c-24.667 -32.667 -50.333 -49 -77 -49c-21.333 0 -46 7 -74 21c-32.667 16 -55.667 24 -69 24c-12.667 0 -25.667 -9.66699 -39 -29l-39 38c24.667 32.667 50.334 49 77.001 49c21.333 0 45.666 -7 72.999 -21c33.333 -16 56.666 -24 69.999 -24
c12.667 0 25.334 9.66699 38.001 29zM338.001 222c-24.667 -32.667 -50.333 -49 -77 -49c-21.333 0 -46 7 -74 21c-32.667 16 -55.667 24 -69 24c-12.667 0 -25.667 -9.66699 -39 -29l-39 38c24.667 32.667 50.334 49 77.001 49c21.333 0 45.666 -6.66699 72.999 -20
c33.333 -16.667 56.666 -25 69.999 -25c12.667 0 25.334 9.66699 38.001 29z" />
    <glyph glyph-name="notequal" unicode="&#x2260;" horiz-adv-x="402" 
d="M342 197h-139l-18 -83h-57l17 83h-85v70h100l26 127h-126v70h141l15 72h58l-15 -72h83v-70h-98l-26 -127h124v-70z" />
    <glyph glyph-name="lessequal" unicode="&#x2264;" horiz-adv-x="391" 
d="M331 86l-270 161v86l270 161v-84l-218 -120l218 -120v-84zM331 0h-271v69h271v-69z" />
    <glyph glyph-name="greaterequal" unicode="&#x2265;" horiz-adv-x="391" 
d="M331 247l-271 -161v84l218 120l-218 120v84l271 -161v-86zM331 0h-271v69h271v-69z" />
    <glyph glyph-name="lozenge" unicode="&#x25ca;" horiz-adv-x="414" 
d="M364 347l-157 -348l-157 348l157 349zM309 347l-102 226l-102 -226l102 -225z" />
    <glyph glyph-name="apple" unicode="&#xf000;" horiz-adv-x="230" 
 />
    <glyph glyph-name="fi" unicode="&#xf001;" horiz-adv-x="451" 
d="M397 0l-75 0.000976562v420l-190 1v-421h-75v423l-58 59h58v10c0 136.667 48 205 144 205c33.333 0 62.333 -9 87 -27c2.66699 -2.66699 4 -6.33398 4 -11.001c0 -9.33301 -4.66699 -18.333 -14 -27c-13.333 -12 -26 -13.667 -38 -5c-15.333 6.66699 -28.333 10 -39 10
c-46 0 -69 -46 -69 -138v-17h265v-482z" />
    <glyph glyph-name="fl" unicode="&#xf002;" horiz-adv-x="430" 
d="M395 0h-75v692c0 16.667 12.667 25 38 25c24.667 0 37 -8.33301 37 -25v-692zM288 670c2.66699 -2.66699 4 -6.33301 4 -11c0 -9.33301 -4.66699 -18.333 -14 -27c-13.333 -12 -26 -13.667 -38 -5c-15.333 6.66699 -28.333 10 -39 10c-46 0 -69 -46 -69 -138v-17h99v-61
h-99v-421h-75v423l-58 59h58v10c0 136.667 48 205 144 205c33.333 0 62.333 -9 87 -27z" />
    <glyph glyph-name=".null" horiz-adv-x="0" 
 />
    <glyph glyph-name="nonmarkingreturn" horiz-adv-x="230" 
 />
    <glyph glyph-name="HT" horiz-adv-x="230" 
 />
    <glyph glyph-name="DEL" horiz-adv-x="230" 
 />
    </font>
</defs>
</svg>
